<svg xmlns="http://www.w3.org/2000/svg" width="319" height="21" viewBox="0 0 319 21" fill="none"><g id="avalicao 3.0-novo"><g id="cinco-estrelas-novo"><mask id="mask0_95_2" style="mask-type:alpha" maskUnits="userSpaceOnUse" x="0" y="3" width="77" height="14"><rect id="Rectangle 14" y="3" width="76.3636" height="14" fill="#D9D9D9"></rect></mask><g mask="url(#mask0_95_2)"><g id="cinco-estrelas-novo_2"><path id="estrela-um-novo" d="M4.88744 5.09938C5.23228 4.03807 6.73375 4.03807 7.07859 5.09938L7.63925 6.82489C7.79347 7.29953 8.23577 7.62088 8.73482 7.62088H10.5491C11.6651 7.62088 12.129 9.04886 11.2262 9.70479L9.75843 10.7712C9.35468 11.0646 9.18574 11.5845 9.33996 12.0591L9.90061 13.7847C10.2455 14.846 9.03074 15.7285 8.12793 15.0726L6.66012 14.0062C6.25637 13.7128 5.70966 13.7128 5.30591 14.0062L3.8381 15.0726C2.9353 15.7285 1.72058 14.846 2.06542 13.7847L2.62608 12.0591C2.78029 11.5845 2.61135 11.0646 2.2076 10.7712L0.739792 9.70479C-0.163012 9.04886 0.300969 7.62088 1.4169 7.62088H3.23121C3.73027 7.62088 4.17257 7.29952 4.32679 6.82489L4.88744 5.09938Z" fill="#FFB74D"></path><path id="estrela-dois-novo" d="M20.782 5.09938C21.1268 4.03807 22.6283 4.03807 22.9731 5.09938L23.5338 6.82489C23.688 7.29953 24.1303 7.62088 24.6294 7.62088H26.4437C27.5596 7.62088 28.0236 9.04886 27.1208 9.70479L25.653 10.7712C25.2492 11.0646 25.0803 11.5845 25.2345 12.0591L25.7951 13.7847C26.14 14.846 24.9253 15.7285 24.0225 15.0726L22.5547 14.0062C22.1509 13.7128 21.6042 13.7128 21.2004 14.0062L19.7326 15.0726C18.8298 15.7285 17.6151 14.846 17.96 13.7847L18.5206 12.0591C18.6748 11.5845 18.5059 11.0646 18.1021 10.7712L16.6343 9.70479C15.7315 9.04886 16.1955 7.62088 17.3114 7.62088H19.1257C19.6248 7.62088 20.0671 7.29952 20.2213 6.82489L20.782 5.09938Z" fill="#FFB74D"></path><path id="estrela-tres-novo" d="M36.6775 5.09938C37.0223 4.03807 38.5238 4.03807 38.8686 5.09938L39.4293 6.82489C39.5835 7.29953 40.0258 7.62088 40.5249 7.62088H42.3392C43.4551 7.62088 43.9191 9.04886 43.0163 9.70479L41.5485 10.7712C41.1447 11.0646 40.9758 11.5845 41.13 12.0591L41.6907 13.7847C42.0355 14.846 40.8208 15.7285 39.918 15.0726L38.4502 14.0062C38.0464 13.7128 37.4997 13.7128 37.096 14.0062L35.6281 15.0726C34.7253 15.7285 33.5106 14.846 33.8555 13.7847L34.4161 12.0591C34.5703 11.5845 34.4014 11.0646 33.9976 10.7712L32.5298 9.70479C31.627 9.04886 32.091 7.62088 33.2069 7.62088H35.0213C35.5203 7.62088 35.9626 7.29952 36.1168 6.82489L36.6775 5.09938Z" fill="#FFB74D"></path><path id="estrela-quatro-novo" d="M52.572 5.09938C52.9169 4.03807 54.4183 4.03807 54.7632 5.09938L55.3238 6.82489C55.478 7.29953 55.9203 7.62088 56.4194 7.62088H58.2337C59.3496 7.62088 59.8136 9.04886 58.9108 9.70479L57.443 10.7712C57.0393 11.0646 56.8703 11.5845 57.0245 12.0591L57.5852 13.7847C57.93 14.846 56.7153 15.7285 55.8125 15.0726L54.3447 14.0062C53.9409 13.7128 53.3942 13.7128 52.9905 14.0062L51.5227 15.0726C50.6199 15.7285 49.4052 14.846 49.75 13.7847L50.3106 12.0591C50.4649 11.5845 50.2959 11.0646 49.8922 10.7712L48.4244 9.70479C47.5216 9.04886 47.9855 7.62088 49.1015 7.62088H50.9158C51.4148 7.62088 51.8571 7.29952 52.0114 6.82489L52.572 5.09938Z" fill="#FFB74D"></path><path id="estrela-cinco-novo" d="M68.4665 5.09938C68.8114 4.03807 70.3129 4.03807 70.6577 5.09938L71.2183 6.82489C71.3726 7.29953 71.8149 7.62088 72.3139 7.62088H74.1282C75.2442 7.62088 75.7081 9.04886 74.8053 9.70479L73.3375 10.7712C72.9338 11.0646 72.7648 11.5845 72.9191 12.0591L73.4797 13.7847C73.8246 14.846 72.6098 15.7285 71.707 15.0726L70.2392 14.0062C69.8355 13.7128 69.2888 13.7128 68.885 14.0062L67.4172 15.0726C66.5144 15.7285 65.2997 14.846 65.6445 13.7847L66.2052 12.0591C66.3594 11.5845 66.1905 11.0646 65.7867 10.7712L64.3189 9.70479C63.4161 9.04886 63.8801 7.62088 64.996 7.62088H66.8103C67.3094 7.62088 67.7517 7.29952 67.9059 6.82489L68.4665 5.09938Z" fill="url(#paint0_linear_95_2)"></path></g></g></g><g id="texto"><path d="M86.8346 14.8262V12.3584L92.1986 3.90631H94.3916V7.25646H93.1193L89.9801 12.2305V12.3328H97.7481V14.8262H86.8346ZM93.1576 17V14.0718L93.2216 12.9913V3.90631H96.1817V17H93.1576ZM101.068 17.1854C100.608 17.1854 100.213 17.0234 99.8851 16.6995C99.5612 16.3756 99.4013 15.9834 99.4056 15.5231C99.4013 15.0713 99.5612 14.6856 99.8851 14.3659C100.213 14.042 100.608 13.88 101.068 13.88C101.503 13.88 101.886 14.042 102.219 14.3659C102.555 14.6856 102.726 15.0713 102.73 15.5231C102.726 15.83 102.645 16.1092 102.487 16.3607C102.334 16.6121 102.131 16.8125 101.88 16.9616C101.633 17.1108 101.362 17.1854 101.068 17.1854ZM109.322 17.179C108.303 17.179 107.393 17.017 106.592 16.6931C105.795 16.3649 105.168 15.9216 104.712 15.3633C104.26 14.8007 104.034 14.1656 104.034 13.4581C104.034 12.9167 104.164 12.4202 104.424 11.9684C104.684 11.5166 105.036 11.1415 105.479 10.8432C105.927 10.5405 106.426 10.3466 106.975 10.2614V10.1591C106.255 10.0269 105.665 9.69234 105.204 9.1553C104.748 8.61825 104.52 7.98957 104.52 7.26924C104.52 6.58728 104.727 5.97991 105.14 5.44712C105.558 4.91434 106.127 4.49451 106.848 4.18762C107.572 3.88074 108.397 3.7273 109.322 3.7273C110.247 3.7273 111.069 3.88074 111.79 4.18762C112.514 4.49451 113.083 4.91434 113.497 5.44712C113.914 5.97991 114.123 6.58728 114.123 7.26924C114.123 7.99383 113.891 8.62464 113.426 9.16169C112.966 9.69447 112.38 10.0269 111.668 10.1591V10.2614C112.214 10.3466 112.708 10.5405 113.151 10.8432C113.599 11.1415 113.953 11.5166 114.213 11.9684C114.477 12.4202 114.609 12.9167 114.609 13.4581C114.609 14.1656 114.381 14.8007 113.925 15.3633C113.469 15.9216 112.842 16.3649 112.045 16.6931C111.253 17.017 110.345 17.179 109.322 17.179ZM109.322 14.9349C109.71 14.9349 110.051 14.8625 110.345 14.7176C110.639 14.5684 110.869 14.3617 111.035 14.0974C111.206 13.8331 111.291 13.5348 111.291 13.2023C111.291 12.8613 111.206 12.5587 111.035 12.2945C110.865 12.0302 110.63 11.8235 110.332 11.6743C110.038 11.5209 109.701 11.4441 109.322 11.4441C108.947 11.4441 108.61 11.5209 108.312 11.6743C108.013 11.8235 107.779 12.0302 107.608 12.2945C107.438 12.5587 107.353 12.8613 107.353 13.2023C107.353 13.5348 107.436 13.8331 107.602 14.0974C107.772 14.3574 108.005 14.562 108.299 14.7112C108.597 14.8603 108.938 14.9349 109.322 14.9349ZM109.322 9.21284C109.654 9.21284 109.948 9.14464 110.204 9.00825C110.464 8.87186 110.667 8.68218 110.811 8.43923C110.961 8.19629 111.035 7.92137 111.035 7.61449C111.035 7.3076 110.961 7.03695 110.811 6.80252C110.667 6.5681 110.466 6.38482 110.21 6.25269C109.955 6.1163 109.658 6.0481 109.322 6.0481C108.989 6.0481 108.693 6.1163 108.433 6.25269C108.173 6.38482 107.971 6.5681 107.826 6.80252C107.681 7.03695 107.608 7.3076 107.608 7.61449C107.608 7.92137 107.681 8.19629 107.826 8.43923C107.975 8.67792 108.179 8.86759 108.439 9.00825C108.699 9.14464 108.994 9.21284 109.322 9.21284ZM125.85 17H121.611V3.90631H125.985C127.268 3.90631 128.369 4.16844 129.29 4.6927C130.211 5.2127 130.916 5.96073 131.406 6.93679C131.901 7.90858 132.148 9.07431 132.148 10.434C132.148 11.7979 131.898 12.97 131.4 13.9503C130.905 14.9307 130.189 15.6851 129.252 16.2136C128.314 16.7379 127.18 17 125.85 17ZM123.587 15.2738H125.742C126.739 15.2738 127.568 15.0862 128.229 14.7112C128.889 14.3318 129.384 13.7841 129.712 13.0681C130.04 12.3477 130.204 11.4697 130.204 10.434C130.204 9.40677 130.04 8.53514 129.712 7.81908C129.388 7.10301 128.904 6.55957 128.261 6.18876C127.617 5.81794 126.818 5.63253 125.863 5.63253H123.587V15.2738ZM134.604 17V3.90631H142.814V5.60696H136.58V9.59644H142.385V11.2907H136.58V15.2994H142.89V17H134.604ZM155.799 3.90631V17H152.64V6.86006H152.564L149.635 8.65022V5.91384L152.864 3.90631H155.799ZM159.809 17.1854C159.349 17.1854 158.954 17.0234 158.626 16.6995C158.302 16.3756 158.142 15.9834 158.147 15.5231C158.142 15.0713 158.302 14.6856 158.626 14.3659C158.954 14.042 159.349 13.88 159.809 13.88C160.244 13.88 160.627 14.042 160.96 14.3659C161.296 14.6856 161.467 15.0713 161.471 15.5231C161.467 15.83 161.386 16.1092 161.228 16.3607C161.075 16.6121 160.872 16.8125 160.621 16.9616C160.374 17.1108 160.103 17.1854 159.809 17.1854ZM168.104 17.179C167.107 17.179 166.223 17.0085 165.451 16.6675C164.684 16.3223 164.079 15.8471 163.635 15.2418C163.192 14.6366 162.966 13.9397 162.958 13.1512H166.142C166.154 13.4367 166.246 13.6903 166.416 13.912C166.587 14.1294 166.819 14.2999 167.113 14.4235C167.407 14.5471 167.742 14.6089 168.117 14.6089C168.492 14.6089 168.822 14.5428 169.108 14.4107C169.398 14.2743 169.624 14.0889 169.786 13.8544C169.948 13.6158 170.027 13.343 170.022 13.0361C170.027 12.7292 169.939 12.4564 169.76 12.2177C169.581 11.979 169.328 11.7936 168.999 11.6615C168.675 11.5294 168.292 11.4633 167.849 11.4633H166.576V9.21284H167.849C168.236 9.21284 168.577 9.1489 168.872 9.02103C169.17 8.89317 169.402 8.71415 169.568 8.48399C169.735 8.24956 169.816 7.98104 169.811 7.67842C169.816 7.38432 169.745 7.12646 169.6 6.90482C169.46 6.67892 169.262 6.50417 169.006 6.38056C168.754 6.25695 168.462 6.19515 168.13 6.19515C167.78 6.19515 167.463 6.25695 167.177 6.38056C166.896 6.50417 166.672 6.67892 166.506 6.90482C166.34 7.13072 166.252 7.39285 166.244 7.69121H163.22C163.228 6.91121 163.446 6.22499 163.872 5.63253C164.298 5.03581 164.878 4.5691 165.611 4.23238C166.348 3.89566 167.188 3.7273 168.13 3.7273C169.068 3.7273 169.892 3.8914 170.604 4.21959C171.316 4.54778 171.87 4.99532 172.266 5.5622C172.663 6.12482 172.861 6.76203 172.861 7.47383C172.865 8.2112 172.624 8.81858 172.139 9.29595C171.657 9.77333 171.037 10.0674 170.278 10.1782V10.2805C171.292 10.3999 172.058 10.7281 172.573 11.2651C173.093 11.8022 173.351 12.4735 173.347 13.279C173.347 14.0377 173.123 14.7112 172.676 15.2994C172.232 15.8833 171.614 16.3436 170.821 16.6803C170.033 17.0128 169.127 17.179 168.104 17.179ZM175.132 17V14.7239L179.908 10.5427C180.266 10.2187 180.571 9.9225 180.822 9.65398C181.074 9.3812 181.266 9.10841 181.398 8.83563C181.53 8.55858 181.596 8.25809 181.596 7.93416C181.596 7.57186 181.517 7.26285 181.359 7.00711C181.202 6.74711 180.984 6.54679 180.707 6.40613C180.43 6.26548 180.113 6.19515 179.755 6.19515C179.392 6.19515 179.075 6.26974 178.802 6.41892C178.529 6.56384 178.316 6.77482 178.163 7.05187C178.014 7.32891 177.939 7.66563 177.939 8.06202H174.94C174.94 7.17121 175.141 6.40187 175.541 5.75401C175.942 5.10614 176.505 4.60746 177.229 4.25795C177.958 3.90418 178.804 3.7273 179.767 3.7273C180.761 3.7273 181.624 3.89353 182.357 4.22598C183.09 4.55844 183.657 5.02303 184.057 5.61974C184.462 6.2122 184.665 6.90056 184.665 7.68481C184.665 8.1835 184.565 8.67792 184.364 9.16808C184.164 9.65824 183.804 10.1996 183.284 10.792C182.768 11.3845 182.035 12.0941 181.085 12.921L179.518 14.3659V14.449H184.825V17H175.132ZM191.626 17.179C190.671 17.179 189.823 17.0064 189.081 16.6611C188.339 16.3159 187.753 15.8407 187.323 15.2354C186.897 14.6302 186.675 13.9354 186.658 13.1512H189.727C189.752 13.6328 189.948 14.0207 190.315 14.3148C190.682 14.6046 191.118 14.7495 191.626 14.7495C192.022 14.7495 192.374 14.6621 192.681 14.4874C192.987 14.3126 193.228 14.0676 193.403 13.7522C193.578 13.4325 193.663 13.0659 193.659 12.6525C193.663 12.2305 193.576 11.8618 193.397 11.5464C193.222 11.231 192.979 10.9859 192.668 10.8112C192.361 10.6322 192.007 10.5427 191.606 10.5427C191.227 10.5384 190.867 10.6215 190.526 10.792C190.189 10.9625 189.934 11.1948 189.759 11.4889L186.965 10.9646L187.534 3.90631H195.935V6.45728H190.136L189.835 9.54529H189.912C190.13 9.183 190.479 8.88464 190.961 8.65022C191.447 8.41153 191.999 8.29219 192.617 8.29219C193.401 8.29219 194.1 8.47546 194.714 8.84202C195.332 9.20431 195.818 9.70726 196.171 10.3509C196.529 10.9945 196.708 11.7318 196.708 12.563C196.708 13.4623 196.495 14.2594 196.069 14.9541C195.647 15.6489 195.055 16.1944 194.292 16.5908C193.533 16.983 192.644 17.179 191.626 17.179ZM204.79 17H202.693L207.405 3.90631H209.687L214.399 17H212.302L208.6 6.28466H208.498L204.79 17ZM205.141 11.8725H211.944V13.5348H205.141V11.8725ZM216.063 3.90631L219.707 14.5705H219.854L223.498 3.90631H225.634L220.922 17H218.639L213.927 3.90631H216.063ZM227.294 17H225.197L229.909 3.90631H232.192L236.904 17H234.807L231.105 6.28466H231.003L227.294 17ZM227.646 11.8725H234.449V13.5348H227.646V11.8725ZM238.795 17V3.90631H240.77V15.2994H246.703V17H238.795ZM250.932 3.90631V17H248.957V3.90631H250.932ZM254.915 17H252.818L257.53 3.90631H259.813L264.525 17H262.428L258.726 6.28466H258.624L254.915 17ZM255.267 11.8725H262.07V13.5348H255.267V11.8725ZM276.675 8.16432H274.681C274.604 7.73809 274.461 7.36301 274.252 7.03908C274.043 6.71515 273.788 6.44023 273.485 6.21433C273.183 5.98843 272.844 5.81794 272.469 5.70286C272.098 5.58778 271.704 5.53024 271.286 5.53024C270.531 5.53024 269.856 5.71991 269.259 6.09925C268.667 6.47859 268.198 7.03482 267.853 7.76793C267.512 8.50104 267.341 9.39611 267.341 10.4532C267.341 11.5187 267.512 12.4181 267.853 13.1512C268.198 13.8843 268.669 14.4384 269.265 14.8135C269.862 15.1885 270.534 15.3761 271.279 15.3761C271.693 15.3761 272.085 15.3207 272.456 15.2098C272.831 15.0948 273.17 14.9264 273.472 14.7048C273.775 14.4831 274.031 14.2125 274.24 13.8928C274.453 13.5689 274.6 13.1981 274.681 12.7804L276.675 12.7867C276.569 13.4304 276.362 14.0228 276.055 14.5641C275.753 15.1012 275.363 15.5657 274.885 15.9579C274.412 16.3457 273.871 16.6462 273.261 16.8593C272.652 17.0725 271.987 17.179 271.267 17.179C270.133 17.179 269.123 16.9105 268.236 16.3734C267.35 15.8321 266.651 15.0585 266.139 14.0526C265.632 13.0467 265.378 11.8469 265.378 10.4532C265.378 9.05513 265.634 7.8553 266.146 6.85367C266.657 5.84778 267.356 5.07631 268.243 4.53926C269.129 3.99795 270.137 3.7273 271.267 3.7273C271.961 3.7273 272.609 3.82746 273.21 4.02779C273.815 4.22385 274.359 4.51369 274.841 4.89729C275.322 5.27663 275.721 5.74122 276.036 6.29105C276.352 6.83662 276.565 7.46104 276.675 8.16432ZM270.595 17.0192H271.848L271.746 17.5434C272.117 17.6031 272.441 17.7523 272.718 17.991C272.995 18.2297 273.134 18.5898 273.134 19.0715C273.138 19.6469 272.888 20.1136 272.385 20.4716C271.887 20.8296 271.164 21.0087 270.218 21.0087L270.18 19.941C270.623 19.941 270.981 19.877 271.254 19.7492C271.531 19.6213 271.672 19.4146 271.676 19.129C271.68 18.8434 271.574 18.6431 271.356 18.528C271.143 18.4129 270.802 18.332 270.333 18.2851L270.595 17.0192ZM290.413 10.4532C290.413 11.8512 290.158 13.0531 289.646 14.059C289.135 15.0607 288.433 15.8321 287.543 16.3734C286.656 16.9105 285.648 17.179 284.519 17.179C283.385 17.179 282.373 16.9105 281.482 16.3734C280.595 15.8321 279.896 15.0585 279.385 14.0526C278.873 13.0467 278.617 11.8469 278.617 10.4532C278.617 9.05513 278.873 7.8553 279.385 6.85367C279.896 5.84778 280.595 5.07631 281.482 4.53926C282.373 3.99795 283.385 3.7273 284.519 3.7273C285.648 3.7273 286.656 3.99795 287.543 4.53926C288.433 5.07631 289.135 5.84778 289.646 6.85367C290.158 7.8553 290.413 9.05513 290.413 10.4532ZM288.457 10.4532C288.457 9.38759 288.284 8.49038 287.939 7.76153C287.598 7.02842 287.129 6.47433 286.532 6.09925C285.94 5.71991 285.269 5.53024 284.519 5.53024C283.764 5.53024 283.091 5.71991 282.498 6.09925C281.906 6.47433 281.437 7.02842 281.092 7.76153C280.751 8.49038 280.58 9.38759 280.58 10.4532C280.58 11.5187 280.751 12.4181 281.092 13.1512C281.437 13.88 281.906 14.4341 282.498 14.8135C283.091 15.1885 283.764 15.3761 284.519 15.3761C285.269 15.3761 285.94 15.1885 286.532 14.8135C287.129 14.4341 287.598 13.88 287.939 13.1512C288.284 12.4181 288.457 11.5187 288.457 10.4532ZM282.594 2.60845L281.303 2.5637C281.303 1.86042 281.494 1.29781 281.878 0.875841C282.262 0.453876 282.733 0.240763 283.291 0.236501C283.555 0.236501 283.785 0.281254 283.982 0.370762C284.178 0.456008 284.361 0.556171 284.531 0.671252C284.702 0.786333 284.874 0.888628 285.049 0.978135C285.224 1.06338 285.418 1.106 285.631 1.106C285.874 1.10174 286.072 1.00797 286.226 0.824694C286.383 0.637155 286.462 0.404861 286.462 0.127813L287.728 0.210927C287.724 0.922726 287.53 1.48321 287.146 1.89239C286.767 2.29731 286.298 2.49977 285.74 2.49977C285.437 2.49977 285.186 2.45714 284.985 2.3719C284.785 2.28239 284.608 2.18223 284.455 2.07141C284.301 1.95633 284.143 1.85616 283.982 1.77092C283.82 1.68141 283.626 1.63666 283.4 1.63666C283.165 1.63666 282.971 1.72829 282.818 1.91157C282.669 2.09485 282.594 2.32714 282.594 2.60845ZM292.876 17V3.90631H301.085V5.60696H294.852V9.59644H300.657V11.2907H294.852V15.2994H301.162V17H292.876ZM310.866 7.34596C310.798 6.74072 310.516 6.27187 310.022 5.93941C309.527 5.6027 308.905 5.43434 308.155 5.43434C307.618 5.43434 307.153 5.51958 306.761 5.69007C306.369 5.8563 306.064 6.08646 305.847 6.38056C305.634 6.67039 305.527 7.00072 305.527 7.37154C305.527 7.68268 305.6 7.95121 305.745 8.17711C305.894 8.40301 306.088 8.59268 306.326 8.74612C306.569 8.8953 306.829 9.02103 307.106 9.12333C307.383 9.22136 307.65 9.30234 307.906 9.36628L309.184 9.69874C309.602 9.80103 310.03 9.93955 310.469 10.1143C310.908 10.2891 311.315 10.5192 311.691 10.8048C312.066 11.0904 312.368 11.4441 312.598 11.8661C312.833 12.2881 312.95 12.7931 312.95 13.3813C312.95 14.123 312.758 14.7815 312.375 15.3569C311.995 15.9323 311.443 16.3862 310.719 16.7187C309.998 17.0511 309.127 17.2174 308.104 17.2174C307.123 17.2174 306.275 17.0618 305.559 16.7507C304.843 16.4395 304.283 15.9984 303.878 15.4272C303.473 14.8518 303.249 14.1699 303.206 13.3813H305.188C305.227 13.8544 305.38 14.2487 305.649 14.5641C305.922 14.8753 306.269 15.1076 306.691 15.261C307.117 15.4102 307.584 15.4848 308.091 15.4848C308.649 15.4848 309.146 15.3974 309.581 15.2226C310.02 15.0436 310.365 14.7964 310.616 14.481C310.868 14.1613 310.994 13.7884 310.994 13.3622C310.994 12.9743 310.883 12.6567 310.661 12.4095C310.444 12.1623 310.148 11.9577 309.772 11.7958C309.402 11.6338 308.982 11.491 308.513 11.3674L306.966 10.9454C305.917 10.6599 305.086 10.24 304.472 9.68595C303.863 9.13185 303.558 8.39874 303.558 7.48662C303.558 6.7322 303.763 6.07368 304.172 5.51106C304.581 4.94844 305.135 4.51156 305.834 4.20041C306.533 3.885 307.322 3.7273 308.2 3.7273C309.086 3.7273 309.868 3.88287 310.546 4.19402C311.228 4.50516 311.765 4.93352 312.157 5.47909C312.549 6.0204 312.754 6.64269 312.771 7.34596H310.866ZM316.417 17.1215C316.067 17.1215 315.767 16.9979 315.515 16.7507C315.264 16.4992 315.138 16.1966 315.138 15.8428C315.138 15.4933 315.264 15.1949 315.515 14.9477C315.767 14.6962 316.067 14.5705 316.417 14.5705C316.766 14.5705 317.067 14.6962 317.318 14.9477C317.57 15.1949 317.696 15.4933 317.696 15.8428C317.696 16.0772 317.636 16.2925 317.516 16.4885C317.401 16.6803 317.248 16.8338 317.056 16.9489C316.864 17.0639 316.651 17.1215 316.417 17.1215Z" fill="#5D1E37"></path></g></g><defs><linearGradient id="paint0_linear_95_2" x1="64.1083" y1="8.72754" x2="74.9265" y2="8.72754" gradientUnits="userSpaceOnUse"><stop offset="0.762822" stop-color="#FFB74D"></stop><stop offset="0.766384" stop-color="#FDF7F9"></stop></linearGradient></defs></svg>