<svg xmlns="http://www.w3.org/2000/svg" width="4824" height="514" viewBox="0 0 4824 514" fill="none"><g id="selos-compras"><g id="seguro"><g id="seguro_2"><path id="Vector" d="M248.485 5.45292C250.16 5.94647 251.836 6.43853 253.512 6.92922C257.102 7.98342 260.688 9.04758 264.273 10.1198C269.973 11.825 275.68 13.5081 281.387 15.1878C288.368 17.2434 295.347 19.3042 302.324 21.3714C315.206 25.1869 328.099 28.9573 341.001 32.7029C341.953 32.9794 342.905 33.2558 343.886 33.5406C348.607 34.911 353.328 36.2806 358.049 37.6497C363.355 39.1885 368.659 40.7303 373.963 42.273C374.804 42.5175 375.645 42.762 376.512 43.0139C380.641 44.2143 384.769 45.416 388.897 46.6203C396.441 48.8194 403.989 51.0014 411.553 53.1312C415.076 54.1238 418.596 55.1237 422.117 56.124C423.785 56.5953 425.454 57.0629 427.124 57.5264C429.429 58.1664 431.731 58.8193 434.032 59.4749C434.705 59.6579 435.378 59.8409 436.072 60.0295C441.373 61.5615 445.808 63.5665 449.17 68.0656C450.839 71.5126 450.904 73.9601 450.912 77.7855C450.92 78.8127 450.92 78.8127 450.928 79.8606C450.942 82.1499 450.935 84.4385 450.928 86.7278C450.934 88.3728 450.941 90.0178 450.949 91.6628C450.967 96.1356 450.966 100.608 450.96 105.081C450.957 108.836 450.963 112.591 450.969 116.346C450.983 125.239 450.982 134.131 450.97 143.024C450.959 152.119 450.973 161.215 451 170.31C451.022 178.165 451.028 186.021 451.023 193.876C451.019 198.546 451.021 203.215 451.039 207.885C451.31 287.849 427.165 363.721 372.641 423.527C370.733 425.632 368.874 427.769 367.024 429.926C360.723 437.144 353.812 443.658 346.524 449.863C345.602 450.674 344.681 451.485 343.731 452.32C313.848 478.415 263.642 513.845 222.641 513.128C217.59 512.698 213.089 511.253 208.337 509.551C207.314 509.196 206.292 508.841 205.238 508.476C155.582 490.818 108.612 460.462 74.5242 419.863C74.0798 419.338 73.6354 418.812 73.1775 418.271C39.6859 378.521 16.2311 331.346 5.77416 280.363C5.58765 279.465 5.40114 278.567 5.20898 277.641C4.57936 274.391 4.05058 271.132 3.52416 267.863C3.4033 267.147 3.28244 266.431 3.15791 265.693C-0.0580051 246.078 0.06297 226.505 0.0882516 206.693C0.0913812 202.898 0.0852174 199.102 0.0792184 195.306C0.0652875 186.36 0.0666457 177.414 0.0781198 168.469C0.0896711 159.259 0.0753755 150.05 0.0487161 140.84C0.0265738 132.892 0.0199209 124.943 0.0257974 116.994C0.0291619 112.264 0.0267823 107.533 0.00954681 102.803C-0.00590362 98.3718 -0.00198451 93.9411 0.0168558 89.5101C0.0205427 87.8872 0.0174282 86.2642 0.00696807 84.6413C-0.00623293 82.424 0.00529409 80.2081 0.0229593 77.9909C0.0231686 76.7518 0.0233845 75.5127 0.0236001 74.2361C0.623222 70.1956 2.00004 68.0374 4.52416 64.8631C7.84586 62.426 11.1203 61.2104 15.061 60.0833C16.1679 59.7628 17.2748 59.4423 18.4152 59.1121C19.6255 58.7695 20.8358 58.427 22.0828 58.074C23.3859 57.6994 24.6889 57.3241 25.9917 56.9482C28.8173 56.1344 31.6442 55.325 34.4721 54.519C39.0379 53.2174 43.6009 51.9059 48.1633 50.5926C53.0645 49.1821 57.9658 47.7721 62.868 46.3651C79.9615 41.4583 97.0381 36.4939 114.113 31.5236C120.544 29.652 126.976 27.7848 133.408 25.9195C148.877 21.4319 164.343 16.9361 179.775 12.3204C184.23 10.9898 188.687 9.66926 193.144 8.34659C196.53 7.33623 199.909 6.30859 203.289 5.28006C205.307 4.68052 207.326 4.08183 209.344 3.48417C210.212 3.21364 211.08 2.94311 211.974 2.66439C224.923 -1.10749 235.964 1.66517 248.485 5.45292ZM218.14 33.657C217.148 33.946 217.148 33.946 216.136 34.2407C213.914 34.8884 211.694 35.5398 209.473 36.1912C207.894 36.6523 206.315 37.1132 204.735 37.5739C201.341 38.5644 197.947 39.5565 194.553 40.5499C189.181 42.1224 183.808 43.6911 178.435 45.2591C176.611 45.7911 174.788 46.3232 172.965 46.8553C172.057 47.1202 171.149 47.385 170.214 47.6579C167.433 48.4696 164.652 49.2816 161.871 50.0938C145.655 54.8286 129.432 59.5402 113.206 64.2405C109.631 65.2759 106.057 66.312 102.483 67.3483C89.0814 71.2338 75.6777 75.1103 62.2664 78.9607C60.1109 79.5803 57.9555 80.1999 55.8 80.8196C51.8997 81.9409 47.9982 83.0579 44.0959 84.1722C42.4105 84.6562 40.7251 85.1404 39.0398 85.6248C38.28 85.8404 37.5203 86.056 36.7375 86.2781C33.3559 87.049 33.3559 87.049 30.5242 88.8631C30.4259 90.4943 30.3978 92.1297 30.3972 93.7639C30.3944 94.8258 30.3915 95.8878 30.3886 96.982C30.3907 98.1578 30.3927 99.3337 30.3948 100.545C30.393 101.776 30.3913 103.008 30.3895 104.276C30.3858 107.67 30.3867 111.064 30.3898 114.458C30.3924 118.027 30.39 121.595 30.3885 125.164C30.3866 131.182 30.389 137.199 30.3938 143.217C30.3992 150.115 30.3975 157.014 30.392 163.912C30.3874 169.863 30.3868 175.814 30.3894 181.765C30.3909 185.306 30.3912 188.846 30.3879 192.386C30.196 224.155 30.196 224.155 33.2117 255.738C33.3846 256.9 33.5576 258.062 33.7358 259.26C41.337 307.962 61.3443 353.644 92.5242 391.863C92.9478 392.388 93.3714 392.913 93.8079 393.454C105.801 408.241 119.343 422.339 134.524 433.863C135.499 434.643 136.473 435.423 137.477 436.226C157.795 452.414 180.638 464.81 204.524 474.863C205.885 475.44 205.885 475.44 207.273 476.028C219.629 481.621 219.629 481.621 232.532 480.269C233.519 479.805 234.507 479.341 235.524 478.863C236.976 478.301 238.432 477.75 239.891 477.207C271.139 465.438 299.422 448.864 324.524 426.863C325.34 426.159 326.156 425.455 326.997 424.73C338.767 414.395 349.973 403.291 359.524 390.863C360.308 389.885 361.092 388.906 361.899 387.898C392.184 349.863 410.71 303.621 417.837 255.738C417.996 254.693 418.156 253.647 418.32 252.57C421.154 231.99 420.669 211.003 420.626 190.28C420.619 186.698 420.619 183.116 420.618 179.534C420.614 172.792 420.606 166.049 420.596 159.307C420.585 151.614 420.579 143.92 420.574 136.227C420.564 120.439 420.547 104.651 420.524 88.8631C415.34 86.8664 410.157 85.0789 404.816 83.545C404.086 83.3324 403.355 83.1198 402.603 82.9008C400.188 82.1991 397.772 81.5018 395.356 80.8045C393.627 80.303 391.899 79.8013 390.17 79.2993C385.525 77.9511 380.878 76.6066 376.231 75.2629C371.379 73.8591 366.528 72.4517 361.676 71.0447C353.774 68.7533 345.871 66.4638 337.968 64.1761C327.501 61.1464 317.036 58.1129 306.571 55.0779C303.491 54.1846 300.41 53.2913 297.33 52.398C296.592 52.184 295.854 51.9701 295.094 51.7497C290.204 50.3318 285.314 48.9147 280.424 47.4981C279.77 47.3085 279.115 47.119 278.441 46.9237C275.254 46.0003 272.067 45.0774 268.879 44.1552C262.916 42.429 256.954 40.698 250.995 38.9536C248.098 38.1057 245.201 37.2595 242.303 36.4134C240.916 36.0078 239.53 35.6012 238.143 35.1936C236.232 34.6318 234.321 34.0735 232.409 33.5154C231.318 33.1956 230.228 32.8759 229.104 32.5464C224.916 31.4372 222.278 32.4469 218.14 33.657Z" fill="#5D1E37"></path><path id="Vector_2" d="M113 257.369L188.333 332.869L339 181.869" stroke="#5D1E37" stroke-width="41.6" stroke-linecap="round" stroke-linejoin="round"></path></g><path id="Compra Segura" d="M612.78 232.312C599.446 232.312 587.906 229.427 578.161 223.657C568.416 217.759 560.915 209.617 555.658 199.231C550.401 188.717 547.773 176.6 547.773 162.88C547.773 149.033 550.401 136.916 555.658 126.53C560.915 116.016 568.416 107.81 578.161 101.911C587.906 96.0133 599.446 93.0642 612.78 93.0642C628.936 93.0642 642.079 97.0391 652.208 104.989C662.466 112.81 668.877 123.901 671.441 138.262H646.054C644.387 130.697 640.733 124.799 635.091 120.568C629.577 116.208 622.141 114.028 612.78 114.028C604.19 114.028 596.753 116.016 590.47 119.991C584.315 123.837 579.571 129.415 576.238 136.723C572.904 144.032 571.237 152.751 571.237 162.88C571.237 172.882 572.904 181.536 576.238 188.845C579.571 196.154 584.315 201.795 590.47 205.77C596.753 209.617 604.19 211.54 612.78 211.54C622.141 211.54 629.642 209.489 635.283 205.386C640.925 201.282 644.643 195.705 646.438 188.653H671.441C668.877 202.244 662.466 212.951 652.208 220.772C642.079 228.465 628.936 232.312 612.78 232.312ZM729.504 232.312C720.401 232.312 712.195 230.196 704.886 225.965C697.577 221.734 691.743 215.9 687.384 208.463C683.153 200.898 681.037 192.179 681.037 182.306C681.037 172.433 683.153 163.714 687.384 156.149C691.743 148.584 697.577 142.75 704.886 138.647C712.323 134.415 720.593 132.3 729.697 132.3C738.929 132.3 747.199 134.415 754.507 138.647C761.816 142.75 767.586 148.584 771.817 156.149C776.177 163.714 778.356 172.433 778.356 182.306C778.356 192.179 776.177 200.898 771.817 208.463C767.586 215.9 761.752 221.734 754.315 225.965C747.007 230.196 738.736 232.312 729.504 232.312ZM729.504 213.271C734.12 213.271 738.287 212.117 742.006 209.809C745.853 207.501 748.93 204.103 751.238 199.616C753.674 195 754.892 189.23 754.892 182.306C754.892 175.382 753.738 169.612 751.43 164.996C749.122 160.38 746.045 156.982 742.198 154.802C738.352 152.495 734.249 151.341 729.889 151.341C725.401 151.341 721.234 152.495 717.388 154.802C713.541 156.982 710.399 160.38 707.963 164.996C705.655 169.612 704.501 175.382 704.501 182.306C704.501 189.23 705.655 195 707.963 199.616C710.399 204.103 713.477 207.501 717.195 209.809C721.042 212.117 725.145 213.271 729.504 213.271ZM788.87 230.004V134.608H809.065L811.18 150.571H811.95C814.899 144.417 819.002 139.865 824.259 136.916C829.516 133.838 835.542 132.3 842.338 132.3C847.21 132.3 851.634 133.005 855.609 134.415C859.584 135.698 863.11 137.749 866.187 140.57C869.264 143.263 871.765 146.853 873.688 151.341H874.457C877.919 145.186 882.343 140.506 887.728 137.3C893.113 133.967 899.845 132.3 907.923 132.3C915.232 132.3 921.514 133.967 926.771 137.3C932.157 140.506 936.324 145.378 939.273 151.918C942.35 158.329 943.889 166.278 943.889 175.767V230.004H921.001V178.075C921.001 169.612 919.335 163.137 916.001 158.649C912.667 154.033 907.41 151.725 900.23 151.725C895.87 151.725 891.959 152.687 888.498 154.61C885.164 156.533 882.535 159.483 880.612 163.457C878.817 167.304 877.919 172.176 877.919 178.075V230.004H854.84V178.075C854.84 169.612 853.173 163.137 849.839 158.649C846.505 154.033 841.441 151.725 834.645 151.725C830.542 151.725 826.759 152.879 823.297 155.187C819.964 157.495 817.207 160.829 815.027 165.188C812.976 169.42 811.95 174.613 811.95 180.767V230.004H788.87ZM957.325 268.47V134.608H976.75L978.097 151.918H978.866C981.43 147.686 984.508 144.16 988.098 141.339C991.688 138.39 995.727 136.146 1000.21 134.608C1004.7 133.069 1009.57 132.3 1014.83 132.3C1023.81 132.3 1031.63 134.479 1038.3 138.839C1045.09 143.198 1050.28 149.161 1053.88 156.726C1057.59 164.163 1059.45 172.689 1059.45 182.306C1059.45 191.922 1057.59 200.513 1053.88 208.078C1050.28 215.515 1045.03 221.413 1038.1 225.773C1031.31 230.132 1023.1 232.312 1013.49 232.312C1005.66 232.312 998.933 230.773 993.291 227.696C987.777 224.619 983.482 220.9 980.405 216.541V268.47H957.325ZM1008.29 213.271C1013.93 213.271 1018.81 211.989 1022.91 209.424C1027.14 206.732 1030.41 203.078 1032.72 198.462C1035.03 193.846 1036.18 188.46 1036.18 182.306C1036.18 176.279 1035.03 170.958 1032.72 166.342C1030.41 161.726 1027.14 158.136 1022.91 155.572C1018.81 152.879 1013.93 151.533 1008.29 151.533C1002.65 151.533 997.714 152.879 993.483 155.572C989.252 158.136 985.982 161.726 983.674 166.342C981.366 170.958 980.212 176.279 980.212 182.306C980.212 188.46 981.366 193.846 983.674 198.462C985.982 203.078 989.252 206.732 993.483 209.424C997.714 211.989 1002.65 213.271 1008.29 213.271ZM1069.95 230.004V134.608H1089.76L1091.68 155.379H1092.45C1095.4 148.712 1098.48 143.711 1101.69 140.378C1105.02 137.044 1108.8 134.864 1113.03 133.838C1117.26 132.813 1122.2 132.3 1127.84 132.3V156.533H1121.69C1117.07 156.533 1112.91 157.11 1109.19 158.264C1105.6 159.418 1102.58 161.149 1100.15 163.457C1097.84 165.637 1096.04 168.522 1094.76 172.112C1093.61 175.574 1093.03 179.806 1093.03 184.806V230.004H1069.95ZM1165.87 232.312C1158.3 232.312 1152.02 231.03 1147.02 228.465C1142.15 225.773 1138.49 222.247 1136.06 217.887C1133.75 213.399 1132.59 208.527 1132.59 203.27C1132.59 197.244 1134.13 192.051 1137.21 187.691C1140.42 183.203 1145.1 179.741 1151.25 177.305C1157.4 174.741 1165.03 173.459 1174.14 173.459H1198.56C1198.56 168.202 1197.79 163.906 1196.26 160.572C1194.85 157.11 1192.6 154.61 1189.52 153.071C1186.58 151.405 1182.86 150.571 1178.37 150.571C1173.11 150.571 1168.5 151.853 1164.52 154.418C1160.67 156.854 1158.37 160.701 1157.6 165.958H1134.9C1135.54 159.034 1137.79 153.071 1141.63 148.071C1145.48 143.07 1150.55 139.224 1156.83 136.531C1163.24 133.71 1170.48 132.3 1178.56 132.3C1187.66 132.3 1195.42 133.903 1201.83 137.108C1208.37 140.185 1213.31 144.609 1216.64 150.379C1219.98 156.149 1221.64 163.137 1221.64 171.343V230.004H1202.6L1200.1 214.617H1199.33C1197.54 217.695 1195.42 220.323 1192.99 222.503C1190.55 224.683 1187.92 226.478 1185.1 227.888C1182.41 229.299 1179.39 230.389 1176.06 231.158C1172.86 231.927 1169.46 232.312 1165.87 232.312ZM1172.98 214.04C1176.83 214.04 1180.23 213.399 1183.18 212.117C1186.25 210.707 1188.82 208.783 1190.87 206.347C1192.92 203.911 1194.52 201.154 1195.68 198.077C1196.96 195 1197.73 191.73 1197.99 188.268H1176.64C1172.02 188.268 1168.24 188.845 1165.29 189.999C1162.34 191.153 1160.16 192.756 1158.75 194.807C1157.47 196.731 1156.83 198.974 1156.83 201.539C1156.83 204.232 1157.47 206.54 1158.75 208.463C1160.16 210.258 1162.02 211.668 1164.33 212.694C1166.76 213.592 1169.65 214.04 1172.98 214.04ZM596.24 417.312C586.495 417.312 577.84 415.581 570.275 412.119C562.71 408.657 556.748 403.72 552.389 397.309C548.157 390.898 545.978 383.269 545.849 374.422H570.275C570.404 378.91 571.429 382.949 573.353 386.539C575.404 390.001 578.353 392.758 582.2 394.809C586.046 396.861 590.727 397.886 596.24 397.886C600.728 397.886 604.638 397.245 607.972 395.963C611.434 394.681 614.191 392.694 616.242 390.001C618.294 387.308 619.32 383.91 619.32 379.807C619.32 375.704 618.294 372.242 616.242 369.421C614.191 366.601 611.434 364.229 607.972 362.305C604.51 360.382 600.6 358.715 596.24 357.305C592.009 355.766 587.585 354.227 582.969 352.689C571.814 348.842 563.416 343.97 557.774 338.071C552.132 332.173 549.311 324.608 549.311 315.376C549.311 307.811 551.17 301.272 554.889 295.759C558.735 290.117 563.993 285.757 570.66 282.68C577.456 279.603 585.277 278.064 594.124 278.064C603.1 278.064 610.921 279.667 617.589 282.872C624.256 286.078 629.513 290.566 633.36 296.336C637.335 301.977 639.386 308.773 639.515 316.723H614.896C614.896 312.876 613.999 309.478 612.203 306.529C610.408 303.58 607.908 301.272 604.703 299.605C601.625 297.938 597.779 297.105 593.163 297.105C589.444 297.105 586.046 297.682 582.969 298.836C580.02 299.862 577.648 301.657 575.853 304.221C574.058 306.657 573.16 309.799 573.16 313.645C573.16 316.979 573.93 319.864 575.468 322.3C577.007 324.608 579.187 326.66 582.008 328.455C584.957 330.122 588.483 331.789 592.586 333.456C596.817 334.994 601.497 336.661 606.626 338.456C613.293 340.764 619.384 343.521 624.897 346.726C630.411 349.804 634.77 353.779 637.976 358.651C641.31 363.523 642.976 369.934 642.976 377.884C642.976 384.808 641.181 391.283 637.591 397.309C634.129 403.336 628.936 408.208 622.012 411.927C615.088 415.517 606.498 417.312 596.24 417.312ZM699.654 417.312C690.037 417.312 681.511 415.26 674.074 411.157C666.765 406.926 660.995 401.156 656.764 393.847C652.661 386.411 650.61 377.756 650.61 367.883C650.61 357.882 652.661 349.098 656.764 341.533C660.867 333.968 666.573 328.07 673.882 323.839C681.318 319.479 689.973 317.3 699.846 317.3C709.206 317.3 717.413 319.415 724.465 323.647C731.645 327.75 737.159 333.263 741.005 340.187C744.98 347.111 746.967 354.933 746.967 363.652C746.967 364.934 746.967 366.344 746.967 367.883C746.967 369.421 746.839 371.088 746.583 372.883H667.342V358.074H723.695C723.311 351.022 720.875 345.508 716.387 341.533C711.899 337.43 706.321 335.379 699.654 335.379C694.91 335.379 690.486 336.469 686.383 338.648C682.408 340.7 679.203 343.906 676.767 348.265C674.459 352.496 673.305 357.946 673.305 364.613V370.191C673.305 376.089 674.459 381.154 676.767 385.385C679.075 389.616 682.216 392.886 686.191 395.194C690.294 397.374 694.718 398.463 699.462 398.463C704.719 398.463 709.142 397.309 712.733 395.001C716.323 392.565 719.015 389.296 720.81 385.193H744.275C742.48 391.347 739.467 396.861 735.235 401.733C731.132 406.477 726.067 410.26 720.041 413.081C714.015 415.901 707.219 417.312 699.654 417.312ZM799.115 455.778C790.139 455.778 782.254 454.624 775.458 452.316C768.662 450.136 763.405 446.931 759.687 442.7C755.968 438.468 754.109 433.275 754.109 427.121C754.109 423.274 755.071 419.556 756.994 415.966C759.046 412.375 762.059 409.106 766.034 406.157C770.009 403.079 775.137 400.323 781.42 397.886L791.421 408.849C785.395 411.029 781.164 413.465 778.728 416.158C776.291 418.979 775.073 422.184 775.073 425.774C775.073 428.595 776.035 431.031 777.958 433.083C779.882 435.135 782.638 436.673 786.229 437.699C789.819 438.725 794.114 439.238 799.115 439.238C803.987 439.238 808.026 438.661 811.232 437.507C814.437 436.353 816.809 434.686 818.348 432.506C820.015 430.454 820.848 428.018 820.848 425.197C820.848 421.607 819.502 418.786 816.809 416.735C814.245 414.683 809.116 413.401 801.423 412.888C794.627 412.375 788.665 411.67 783.536 410.773C778.535 409.747 774.176 408.593 770.457 407.311C766.867 406.028 763.79 404.618 761.225 403.079C758.789 401.413 756.738 399.746 755.071 398.079V393.655L775.073 373.268L788.536 378.653L769.496 400.194L774.881 390.193C776.035 390.706 777.253 391.283 778.535 391.924C779.946 392.437 781.741 393.014 783.921 393.655C786.229 394.168 789.113 394.745 792.575 395.386C796.166 395.899 800.653 396.348 806.039 396.732C814.501 397.502 821.425 399.04 826.81 401.348C832.196 403.528 836.106 406.541 838.543 410.388C841.107 414.235 842.389 418.979 842.389 424.62C842.389 429.621 840.851 434.493 837.773 439.238C834.696 443.982 829.952 447.893 823.541 450.97C817.13 454.175 808.988 455.778 799.115 455.778ZM799.115 386.347C791.037 386.347 784.113 384.808 778.343 381.731C772.573 378.525 768.149 374.358 765.072 369.229C761.995 363.972 760.456 358.138 760.456 351.727C760.456 345.316 761.995 339.546 765.072 334.417C768.149 329.288 772.573 325.185 778.343 322.108C784.113 318.903 791.037 317.3 799.115 317.3C807.193 317.3 814.117 318.903 819.886 322.108C825.656 325.185 830.08 329.288 833.157 334.417C836.235 339.546 837.773 345.316 837.773 351.727C837.773 358.138 836.235 363.972 833.157 369.229C830.08 374.358 825.656 378.525 819.886 381.731C814.117 384.808 807.193 386.347 799.115 386.347ZM799.115 369.421C804.628 369.421 809.052 367.947 812.386 364.998C815.847 362.049 817.578 357.689 817.578 351.919C817.578 346.021 815.847 341.662 812.386 338.841C809.052 335.892 804.628 334.417 799.115 334.417C793.601 334.417 789.113 335.892 785.652 338.841C782.19 341.662 780.459 346.021 780.459 351.919C780.459 357.689 782.19 362.049 785.652 364.998C789.113 367.947 793.601 369.421 799.115 369.421ZM814.694 335.379L810.27 319.608H850.082V332.109L814.694 335.379ZM896.727 417.312C889.034 417.312 882.431 415.709 876.917 412.504C871.404 409.17 867.172 404.297 864.223 397.886C861.274 391.347 859.8 383.333 859.8 373.845V319.608H882.879V371.537C882.879 380 884.61 386.539 888.072 391.155C891.534 395.643 896.92 397.886 904.228 397.886C908.972 397.886 913.139 396.732 916.73 394.424C920.448 392.117 923.333 388.847 925.385 384.616C927.564 380.256 928.654 374.999 928.654 368.844V319.608H951.734V415.004H931.924L930 399.81H929.231C926.154 405.195 921.923 409.49 916.537 412.696C911.28 415.773 904.677 417.312 896.727 417.312ZM965.146 415.004V319.608H984.956L986.879 340.379H987.649C990.598 333.712 993.675 328.711 996.881 325.378C1000.21 322.044 1004 319.864 1008.23 318.838C1012.46 317.813 1017.4 317.3 1023.04 317.3V341.533H1016.88C1012.27 341.533 1008.1 342.11 1004.38 343.264C1000.79 344.418 997.778 346.149 995.342 348.457C993.034 350.637 991.239 353.522 989.957 357.112C988.803 360.574 988.226 364.806 988.226 369.806V415.004H965.146ZM1061.06 417.312C1053.5 417.312 1047.21 416.03 1042.21 413.465C1037.34 410.773 1033.69 407.247 1031.25 402.887C1028.94 398.399 1027.79 393.527 1027.79 388.27C1027.79 382.244 1029.33 377.051 1032.4 372.691C1035.61 368.203 1040.29 364.741 1046.44 362.305C1052.6 359.741 1060.23 358.459 1069.33 358.459H1093.76C1093.76 353.202 1092.99 348.906 1091.45 345.572C1090.04 342.11 1087.8 339.61 1084.72 338.071C1081.77 336.405 1078.05 335.571 1073.56 335.571C1068.31 335.571 1063.69 336.853 1059.72 339.418C1055.87 341.854 1053.56 345.701 1052.79 350.958H1030.1C1030.74 344.034 1032.98 338.071 1036.83 333.071C1040.67 328.07 1045.74 324.224 1052.02 321.531C1058.43 318.71 1065.68 317.3 1073.76 317.3C1082.86 317.3 1090.62 318.903 1097.03 322.108C1103.57 325.185 1108.5 329.609 1111.84 335.379C1115.17 341.149 1116.84 348.137 1116.84 356.343V415.004H1097.8L1095.3 399.617H1094.53C1092.73 402.695 1090.62 405.323 1088.18 407.503C1085.74 409.683 1083.12 411.478 1080.3 412.888C1077.6 414.299 1074.59 415.389 1071.26 416.158C1068.05 416.927 1064.65 417.312 1061.06 417.312ZM1068.18 399.04C1072.02 399.04 1075.42 398.399 1078.37 397.117C1081.45 395.707 1084.01 393.783 1086.07 391.347C1088.12 388.911 1089.72 386.154 1090.87 383.077C1092.16 380 1092.92 376.73 1093.18 373.268H1071.83C1067.22 373.268 1063.43 373.845 1060.49 374.999C1057.54 376.153 1055.36 377.756 1053.95 379.807C1052.66 381.731 1052.02 383.974 1052.02 386.539C1052.02 389.232 1052.66 391.54 1053.95 393.463C1055.36 395.258 1057.22 396.668 1059.52 397.694C1061.96 398.592 1064.84 399.04 1068.18 399.04Z" fill="#5D1E37"></path></g><path id="Vector 1" d="M1429.04 0.869141V513.139" stroke="#5D1E37" stroke-width="8"></path><g id="satisfacao"><g id="Group 2"><path id="Vector_3" d="M1835.17 5.61108C1836.89 6.87931 1838.6 8.16891 1840.29 9.47853C1843.47 11.9314 1843.47 11.9314 1847.28 12.6364C1849.42 12.1177 1849.42 12.1177 1851.6 11.3655C1864.25 7.55616 1875.97 9.92395 1887.31 15.9698C1893.57 19.6487 1896.75 22.9394 1900.17 29.3772C1902.64 33.5321 1902.64 33.5321 1906.94 35.3421C1909.16 35.4427 1911.38 35.4862 1913.61 35.4786C1924.39 35.7133 1932.52 41.1344 1939.94 48.4766C1946.51 55.5618 1950.66 63.6853 1951.07 73.4786C1951.03 74.1373 1950.99 74.796 1950.94 75.4747C1951.77 75.5571 1952.59 75.6394 1953.44 75.7242C1962.64 77.6948 1970.17 83.3426 1975.69 90.9055C1982.11 101.224 1985.03 110.965 1982.94 123.132C1982.48 127.029 1982.48 127.029 1984.38 130.297C1985.78 131.447 1987.21 132.556 1988.67 133.627C1996.22 139.576 1999.27 149.165 2000.85 158.313C2001.61 167.729 2000.14 176.337 1995.55 184.637C1993.48 188.003 1993.48 188.003 1994.63 190.668C1995.03 191.518 1995.44 192.369 1995.86 193.245C2001.32 206.261 2002.61 217.587 1997.85 231.171C1994.58 238.217 1989.94 244.247 1983.88 249.136C1983.22 249.136 1982.56 249.136 1981.88 249.136C1982.05 249.755 1982.22 250.373 1982.39 251.011C1985.05 262.564 1983.55 273.888 1977.78 284.278C1971.78 293.137 1963.79 300.285 1953.15 302.652C1952.42 302.777 1951.69 302.902 1950.94 303.031C1950.67 309.554 1951.67 315.242 1953.17 321.577C1953.41 322.608 1953.64 323.639 1953.89 324.701C1954.67 328.109 1955.47 331.515 1956.27 334.921C1956.83 337.333 1957.39 339.745 1957.94 342.157C1959.27 347.885 1960.6 353.612 1961.94 359.337C1963.56 366.302 1965.18 373.268 1966.79 380.235C1967.37 382.725 1967.95 385.214 1968.52 387.703C1969.1 390.174 1969.67 392.645 1970.24 395.116C1971.09 398.791 1971.95 402.466 1972.8 406.14C1973.35 408.538 1973.91 410.936 1974.47 413.334C1975.79 419.062 1977.13 424.79 1978.46 430.515C1979.67 435.695 1980.88 440.876 1982.07 446.059C1982.51 447.939 1982.95 449.819 1983.39 451.697C1983.99 454.258 1984.58 456.821 1985.17 459.385C1985.34 460.118 1985.52 460.851 1985.7 461.606C1987.3 468.687 1987.95 475.336 1984.26 481.849C1981.2 485.909 1977.53 488.233 1972.5 489.065C1964.34 489.337 1958.72 486.753 1951.63 482.929C1950.51 482.345 1949.38 481.761 1948.22 481.159C1940.91 477.336 1933.67 473.365 1926.43 469.393C1922.96 467.492 1919.49 465.599 1916.01 463.717C1915.2 463.274 1914.38 462.831 1913.53 462.375C1911.24 461.149 1908.92 459.963 1906.59 458.789C1905.93 458.429 1905.26 458.069 1904.57 457.698C1900.88 455.89 1899.29 455.661 1895.29 456.82C1892.45 458.496 1890.75 459.674 1888.75 462.22C1885.95 465.642 1883.07 468.942 1880.08 472.2C1877.24 475.313 1874.42 478.436 1871.66 481.619C1868.24 485.557 1864.71 489.392 1861.18 493.224C1858.52 496.108 1855.93 499.031 1853.39 502.017C1844.46 512.32 1844.46 512.32 1838.55 512.859C1828.04 513.108 1828.04 513.108 1823.19 508.629C1819.76 505.106 1818.66 502.541 1818.2 497.651C1817.55 497.651 1816.89 497.651 1816.21 497.651C1816.17 498.495 1816.13 499.339 1816.08 500.208C1814.8 505.249 1811.78 508.978 1807.39 511.803C1801.98 513.851 1795.37 513.553 1790.13 511.249C1783.74 505.408 1777.7 499.292 1772.06 492.715C1768.55 488.64 1764.92 484.676 1761.31 480.684C1759.82 479.021 1758.32 477.357 1756.82 475.694C1755.72 474.47 1755.72 474.47 1754.6 473.222C1753.03 471.482 1751.47 469.741 1749.91 467.998C1749.13 467.12 1748.34 466.243 1747.53 465.339C1746.82 464.549 1746.12 463.759 1745.39 462.945C1744.72 462.212 1744.04 461.478 1743.35 460.723C1742.69 459.989 1742.02 459.256 1741.34 458.501C1739.15 456.545 1738.3 455.796 1735.37 455.732C1732.95 456.712 1730.79 457.746 1728.5 458.976C1727.07 459.723 1725.63 460.469 1724.2 461.214C1723.42 461.619 1722.65 462.024 1721.86 462.441C1718.39 464.24 1714.89 465.969 1711.39 467.702C1702.46 472.125 1693.6 476.658 1684.8 481.334C1683.38 482.089 1681.96 482.841 1680.54 483.59C1679.14 484.326 1677.75 485.072 1676.36 485.826C1670.6 488.871 1666.03 489.741 1659.51 488.668C1653.89 486.631 1650.75 483.333 1648.13 478.044C1646.03 469.727 1648.74 461.458 1650.67 453.354C1651 451.909 1651.34 450.464 1651.68 449.019C1652.4 445.919 1653.12 442.82 1653.85 439.723C1655.01 434.822 1656.15 429.917 1657.28 425.012C1660.11 412.833 1662.96 400.659 1665.81 388.485C1668.03 379.015 1670.24 369.544 1672.44 360.069C1673.57 355.196 1674.71 350.326 1675.86 345.457C1676.57 342.426 1677.27 339.392 1677.97 336.358C1678.3 334.955 1678.63 333.553 1678.96 332.152C1679.42 330.235 1679.86 328.313 1680.3 326.392C1680.55 325.319 1680.8 324.247 1681.06 323.142C1681.53 319.546 1681.12 316.567 1680.47 313.011C1680.27 311.203 1680.08 309.394 1679.91 307.584C1679.83 306.721 1679.74 305.858 1679.66 304.968C1679.6 304.329 1679.54 303.689 1679.47 303.031C1678.88 302.907 1678.29 302.784 1677.68 302.656C1666.65 299.911 1658.46 293.438 1652.19 284.025C1646.98 274.748 1646.03 266.086 1646.86 255.658C1646.98 253.355 1647.02 251.394 1646.54 249.136C1643.84 246.276 1643.84 246.276 1640.55 244.145C1631.87 234.25 1628.63 223.124 1629.18 210.126C1629.87 203.301 1631.79 197.148 1635.37 191.292C1636.92 188.277 1636.92 188.277 1635.58 185.225C1634.99 184.228 1634.41 183.231 1633.81 182.204C1628.62 173.115 1628.06 162.362 1630.25 152.149C1633.05 143.947 1637.19 137.096 1643.98 131.678C1646.01 130.053 1646.01 130.053 1647.54 128.371C1647.67 125.542 1647.67 125.542 1646.54 122.383C1645.38 109.789 1648.53 98.2984 1656.52 88.4494C1657.27 87.5134 1657.27 87.5134 1658.04 86.5585C1663.45 80.5076 1670.85 77.0189 1678.48 74.4767C1679.29 71.79 1679.29 71.79 1679.79 68.5507C1681.67 59.585 1685.53 52.6092 1692.45 46.5312C1692.91 46.0526 1693.38 45.574 1693.86 45.0809C1701.1 38.0375 1710.26 35.2508 1720.21 35.2407C1722.27 35.3194 1724.33 35.4139 1726.38 35.5526C1726.79 34.4391 1726.79 34.4391 1727.21 33.3031C1731.33 23.6185 1739.41 17.03 1748.73 12.6325C1759.26 8.45968 1768.6 9.18012 1779.33 12.0399C1783.17 12.7665 1784.98 12.4273 1788.24 10.3323C1788.92 9.82414 1789.61 9.31595 1790.32 8.79237C1803.26 0.104695 1821.12 -2.22314 1835.17 5.61108ZM1793.92 30.6364C1791.51 33.4187 1790.5 33.5302 1786.77 33.9308C1783.03 33.9106 1780.67 32.9069 1777.41 31.1238C1770.95 27.653 1764.92 26.6026 1757.76 28.5039C1751.23 31.0944 1745.98 35.3302 1742.78 41.6267C1741.94 43.695 1741.15 45.7833 1740.43 47.8918C1739.33 50.5911 1738.63 51.7472 1736.36 53.5176C1734.23 53.7941 1734.23 53.7941 1731.77 53.6696C1730.87 53.642 1729.97 53.6143 1729.04 53.5858C1727.16 53.4996 1725.29 53.4087 1723.41 53.3129C1715.6 53.0858 1710.59 54.7708 1704.68 59.8801C1699.4 66.0373 1697.43 70.3017 1697.19 78.3441C1696.7 84.9939 1696.7 84.9939 1694.63 88.6365C1690.66 90.8973 1686.78 91.7262 1682.34 92.7106C1675.73 94.3932 1671.28 98.9446 1667.5 104.418C1664.41 110.197 1663.27 116.278 1665.18 122.64C1665.72 124.162 1666.27 125.681 1666.83 127.198C1668.14 131.447 1667.89 135.189 1666.5 139.35C1665.68 139.576 1664.85 139.803 1664 140.036C1657.47 142.486 1652.13 147.386 1648.97 153.635C1646.71 159.729 1646.32 165.827 1648.49 171.997C1650.35 175.925 1652.38 179.263 1655.33 182.453C1657.52 185.26 1657.52 185.26 1658.33 188.442C1657.25 193.486 1654.69 196.518 1651.47 200.485C1647.38 206.269 1646.69 212.299 1647.54 219.194C1650.33 228.309 1655.01 233.199 1663.26 237.728C1665.5 239.155 1665.5 239.155 1667.5 242.149C1667.92 246.401 1667.43 249.662 1666 253.627C1663.41 260.924 1664.27 267.157 1667.5 274.087C1671.28 280.327 1676.72 283.574 1683.47 286.064C1686.09 286.642 1688.66 287.096 1691.32 287.409C1693.45 288.06 1693.45 288.06 1695.21 289.701C1696.83 292.794 1696.78 295.18 1696.82 298.664C1697.27 307.113 1699.47 313.571 1705.74 319.436C1712.15 324.326 1718.43 325.641 1726.38 324.988C1727.8 324.766 1729.21 324.538 1730.62 324.302C1734.94 323.942 1736 324.375 1739.36 326.984C1740.8 329.721 1740.8 329.721 1741.92 332.847C1744.21 339.196 1746.79 343.516 1752.89 346.695C1754.04 347.305 1754.04 347.305 1755.21 347.927C1760.71 350.562 1766.64 350.857 1772.55 349.374C1775.6 348.268 1778.17 347.016 1780.9 345.261C1784.5 343.274 1787.54 343.759 1791.51 344.2C1793.93 345.241 1794.13 346.574 1795.25 348.941C1800.71 355.18 1806.61 358.524 1814.84 359.233C1821.9 359.102 1828.07 356.399 1833.05 351.436C1834.83 349.51 1836.5 347.539 1838.16 345.51C1840.45 343.726 1842.08 343.276 1844.98 343.413C1847.9 344.137 1850.25 345.504 1852.89 346.945C1858.84 350.068 1863.45 351.216 1870.1 349.939C1877.43 347.587 1882.9 343.436 1887.07 336.964C1888.18 334.394 1889.13 331.858 1889.95 329.179C1891.5 326.117 1892.88 325.289 1896.05 323.99C1898.75 324.012 1901.19 324.165 1903.85 324.489C1912.6 325.281 1918.32 323.863 1925.39 318.524C1932.49 311.782 1933.1 304.447 1933.5 295.14C1934.03 291.727 1934.4 290.354 1936.97 288.06C1940.19 287.112 1940.19 287.112 1944.02 286.376C1952.37 284.478 1958.38 280.5 1963.16 273.194C1966.55 266.077 1966.09 259.44 1963.92 252.13C1963.59 251.471 1963.26 250.812 1962.92 250.134C1962.51 247.083 1962.44 244.197 1962.92 241.151C1965.04 238.843 1965.04 238.843 1967.91 237.159C1975.03 232.766 1980.14 227.849 1982.47 219.65C1983.71 212.235 1982.52 206.074 1978.24 199.927C1977.09 198.476 1975.84 197.099 1974.59 195.74C1972.68 192.918 1972.22 190.776 1972.38 187.37C1973.21 184.015 1975.18 181.779 1977.36 179.155C1982.06 173.383 1983.37 167.579 1982.88 160.309C1980.32 150.55 1975.19 145.634 1966.91 140.348C1964.36 138.477 1964.36 138.477 1962.92 136.356C1962.54 132.33 1962.35 129.729 1963.92 126.009C1966.13 120.212 1965.85 113.438 1964.04 107.553C1961.12 101.207 1957.26 96.3423 1950.78 93.4825C1947.08 92.1917 1943.34 91.3022 1939.53 90.4455C1935.97 89.4474 1935.97 89.4474 1933.98 86.4533C1933.78 84.4422 1933.67 82.4224 1933.6 80.4026C1932.99 71.4654 1931.25 65.2061 1924.56 59.0069C1917.2 52.763 1910.83 53.3564 1901.61 53.771C1894.68 53.9376 1894.68 53.9376 1891.53 51.8178C1890.02 49.4576 1889.03 47.3118 1888.13 44.6599C1885.36 37.4046 1881.44 33.0751 1874.55 29.5448C1867.78 26.8423 1861.83 27.106 1855.08 29.6618C1852.98 30.5733 1852.98 30.5733 1850.64 32.2466C1846.78 34.2743 1843.39 34.8021 1839.16 33.5565C1836.93 31.5072 1835.15 29.2713 1833.25 26.9054C1829.04 22.1733 1824.19 19.9869 1817.96 19.1472C1806.51 18.7235 1801.06 21.938 1793.92 30.6364ZM1933.92 333.721C1927.25 338.824 1919.71 341.978 1911.22 341.943C1908.26 341.955 1905.87 342.063 1903.04 342.953C1901.09 345.235 1899.9 347.546 1898.56 350.231C1893.86 358.627 1885.28 363.087 1876.53 366.157C1866.83 368.273 1857.05 367.512 1847.83 363.982C1844.93 363.646 1844.93 363.646 1842.21 365.902C1837.21 371.18 1836.87 378.995 1835.7 385.888C1835.42 387.47 1835.14 389.051 1834.85 390.631C1834.26 393.939 1833.68 397.248 1833.11 400.56C1832.39 404.786 1831.64 409.006 1830.87 413.224C1830.28 416.487 1829.7 419.753 1829.13 423.019C1828.86 424.575 1828.58 426.13 1828.3 427.685C1826.23 439.177 1826.23 439.177 1827.19 450.742C1827.32 451.536 1827.46 452.329 1827.6 453.147C1828.04 455.773 1828.53 458.39 1829.03 461.007C1829.21 461.947 1829.38 462.887 1829.56 463.855C1830.12 466.825 1830.68 469.793 1831.24 472.762C1831.62 474.788 1832 476.815 1832.38 478.842C1833.31 483.781 1834.24 488.72 1835.17 493.658C1836.29 492.712 1837.4 491.764 1838.52 490.815C1839.14 490.288 1839.76 489.76 1840.4 489.216C1842.62 487.262 1844.58 485.153 1846.52 482.929C1847.28 482.07 1848.04 481.211 1848.82 480.325C1849.97 479.021 1849.97 479.021 1851.14 477.69C1852.63 476.024 1854.13 474.361 1855.63 472.699C1856.37 471.879 1857.11 471.058 1857.87 470.212C1859.39 468.522 1860.91 466.832 1862.44 465.144C1865.93 461.276 1869.41 457.401 1872.85 453.487C1873.41 452.847 1873.98 452.208 1874.56 451.549C1875.92 449.95 1877.17 448.261 1878.4 446.563C1883.73 440.98 1890.71 437.949 1898.44 437.687C1909.34 438.025 1919.52 444.877 1928.93 449.807C1930.58 450.667 1932.24 451.527 1933.9 452.387C1938.59 454.822 1943.27 457.272 1947.95 459.725C1949.14 460.346 1950.33 460.968 1951.52 461.589C1956.66 464.278 1961.79 466.98 1966.91 469.705C1967.98 466.427 1967.81 464.254 1967.04 460.914C1966.71 459.469 1966.71 459.469 1966.37 457.994C1966.12 456.943 1965.87 455.892 1965.61 454.81C1965.23 453.141 1965.23 453.141 1964.84 451.439C1963.99 447.749 1963.12 444.063 1962.25 440.376C1961.66 437.804 1961.06 435.233 1960.47 432.661C1959.05 426.564 1957.63 420.47 1956.21 414.377C1954.6 407.51 1953.01 400.64 1951.41 393.77C1946.63 373.164 1941.83 352.563 1936.97 331.974C1935.65 331.866 1935.65 331.866 1933.92 333.721ZM1696.44 335.966C1692.53 352.813 1688.63 369.661 1684.73 386.51C1682.92 394.333 1681.11 402.156 1679.29 409.978C1677.71 416.795 1676.13 423.613 1674.56 430.431C1673.72 434.042 1672.88 437.653 1672.05 441.262C1671.11 445.29 1670.18 449.32 1669.25 453.349C1668.97 454.548 1668.69 455.747 1668.4 456.982C1668.02 458.628 1668.02 458.628 1667.64 460.307C1667.42 461.26 1667.2 462.213 1666.97 463.195C1666.38 465.94 1666.38 465.94 1666.5 469.705C1670.46 468.464 1674.08 467.019 1677.76 465.097C1678.75 464.579 1679.75 464.061 1680.77 463.528C1682.35 462.695 1682.35 462.695 1683.97 461.846C1685.06 461.273 1686.16 460.701 1687.28 460.111C1695.6 455.746 1703.86 451.279 1712.07 446.71C1730.83 436.334 1730.83 436.334 1741.77 438.173C1750.1 440.583 1755.94 445.95 1761.4 452.469C1763.63 455.118 1765.96 457.668 1768.3 460.224C1771.14 463.337 1773.96 466.459 1776.72 469.643C1780.14 473.575 1783.67 477.403 1787.19 481.234C1790.95 485.317 1794.62 489.458 1798.24 493.658C1799.82 490.777 1800.66 488.224 1801.24 484.994C1801.41 484.059 1801.58 483.124 1801.75 482.161C1801.93 481.143 1802.11 480.124 1802.3 479.075C1802.49 477.997 1802.69 476.919 1802.89 475.809C1803.53 472.244 1804.17 468.679 1804.8 465.113C1805.24 462.639 1805.69 460.166 1806.13 457.693C1807.07 452.51 1807.99 447.327 1808.92 442.143C1810.1 435.485 1811.3 428.829 1812.5 422.173C1813.63 415.839 1814.77 409.505 1815.9 403.171C1816.23 401.348 1816.23 401.348 1816.56 399.488C1817.18 396.064 1817.79 392.64 1818.4 389.215C1818.58 388.193 1818.77 387.17 1818.96 386.117C1819.2 384.723 1819.2 384.723 1819.46 383.301C1819.6 382.492 1819.74 381.682 1819.89 380.847C1820.25 378.885 1820.25 378.885 1820.2 376.886C1819.4 376.861 1818.6 376.835 1817.78 376.808C1806.89 376.246 1798.21 374.544 1789.7 367.467C1786.09 364.54 1786.09 364.54 1781.67 364.064C1779.86 364.643 1778.07 365.272 1776.29 365.943C1766.24 369.167 1754.8 367.129 1745.35 362.914C1743.02 361.433 1740.93 359.897 1738.85 358.095C1737.42 356.72 1737.42 356.72 1735.37 356.925C1735.09 356.372 1734.81 355.819 1734.53 355.249C1733.96 354.103 1733.96 354.103 1733.37 352.933C1732.99 352.107 1732.6 351.281 1732.21 350.43C1730.51 347.385 1729.02 345.261 1726.38 342.953C1722.31 341.904 1718.48 341.572 1714.3 341.311C1710.03 340.921 1707.06 339.879 1703.32 337.865C1701.07 336.791 1698.89 336.422 1696.44 335.966Z" fill="#5D1E37"></path><path id="Vector_4" d="M1917.04 84.5469C1920.26 87.6672 1923.16 90.9585 1925.99 94.4377C1926.75 95.3589 1927.51 96.2801 1928.29 97.2292C1954.18 129.309 1962.62 167.516 1959.73 208.043C1959.19 212.858 1958.18 217.51 1956.93 222.188C1956.74 222.953 1956.55 223.717 1956.35 224.505C1946.65 262.338 1922.69 294.786 1889 314.745C1876.14 322.092 1862.54 327.521 1848.14 330.976C1847.48 331.139 1846.82 331.303 1846.14 331.471C1825.81 336.27 1802.53 336.041 1782.27 330.976C1781.11 330.695 1781.11 330.695 1779.93 330.407C1756.58 324.552 1736.68 313.543 1718.4 298.04C1717.74 297.506 1717.08 296.972 1716.41 296.422C1711.89 292.715 1708.16 288.55 1704.43 284.068C1703.52 283.029 1703.52 283.029 1702.6 281.97C1677.89 252.684 1666.78 213.91 1669.81 175.982C1673.6 135.726 1693.5 100.284 1724.39 74.4767C1745.05 58.3177 1769.49 48.5435 1795.25 44.5351C1796.09 44.4026 1796.93 44.2701 1797.8 44.1336C1842.03 38.5374 1884.63 54.958 1917.04 84.5469ZM1716.61 107.65C1695.64 133.848 1684.36 167.58 1687.96 201.19C1689.29 212.268 1691.48 222.734 1695.44 233.167C1695.69 233.818 1695.94 234.47 1696.19 235.141C1702.35 250.997 1710.96 264.572 1722.96 276.63C1724.3 277.991 1725.61 279.387 1726.91 280.785C1741.15 295.79 1761.29 306.812 1781.28 312.013C1781.99 312.206 1782.69 312.399 1783.43 312.597C1815.67 321.089 1850.36 315.895 1879.21 299.424C1885.24 295.808 1890.69 291.586 1896.05 287.062C1897.37 285.952 1897.37 285.952 1898.72 284.82C1917.47 268.481 1930.09 248.637 1937.35 224.933C1937.58 224.156 1937.82 223.378 1938.07 222.578C1947.17 190.973 1942.43 156.421 1927.08 127.595C1922.81 119.988 1917.58 113.112 1912.02 106.414C1911.24 105.469 1910.46 104.523 1909.66 103.549C1887.26 77.6684 1854.69 64.0234 1821.09 61.3339C1780.83 58.9623 1742.69 77.6714 1716.61 107.65Z" fill="#5D1E37"></path><path id="Vector_5" d="M1821.2 86.4533C1827.81 89.7616 1831.16 94.9227 1834.16 101.51C1834.97 103.264 1834.97 103.264 1835.79 105.054C1836.35 106.298 1836.92 107.541 1837.48 108.785C1838.06 110.051 1838.64 111.316 1839.22 112.582C1840.35 115.059 1841.48 117.539 1842.61 120.019C1843.91 122.848 1845.22 125.668 1846.55 128.481C1847.05 129.526 1847.05 129.526 1847.56 130.592C1848.39 132.35 1849.23 134.108 1850.07 135.865C1851.14 138.352 1851.14 138.352 1851.14 140.348C1851.93 140.388 1852.73 140.427 1853.55 140.468C1862.87 141.023 1871.98 142.233 1881.19 143.761C1883.6 144.157 1886.01 144.53 1888.43 144.904C1889.98 145.158 1891.53 145.413 1893.09 145.67C1893.8 145.777 1894.51 145.884 1895.24 145.995C1901.29 147.039 1905.26 149.415 1909.4 153.884C1911.65 158.636 1912.01 163.126 1911.02 168.294C1908.51 172.745 1905.39 176.111 1901.73 179.646C1898.03 183.256 1894.53 186.925 1891.23 190.906C1889.33 192.964 1887.37 194.784 1885.28 196.644C1884.59 197.274 1883.9 197.903 1883.19 198.552C1881.81 199.812 1880.41 201.045 1878.97 202.246C1876.15 204.863 1874.27 206.803 1873.78 210.708C1873.99 213.934 1874.51 217.012 1875.09 220.192C1875.32 221.627 1875.54 223.063 1875.76 224.5C1876.64 230.168 1877.61 235.82 1878.58 241.474C1878.99 243.909 1879.4 246.345 1879.81 248.781C1879.93 249.515 1880.06 250.249 1880.19 251.006C1881.42 258.368 1881.79 264.328 1878.09 271.093C1873.77 275.293 1870.27 277.109 1864.23 277.031C1857.63 276.214 1852.29 272.822 1846.59 269.596C1844.87 268.655 1844.87 268.655 1843.13 267.695C1838.08 264.914 1833.08 262.078 1828.14 259.116C1827.42 258.689 1826.7 258.261 1825.95 257.82C1824.65 257.045 1823.37 256.252 1822.09 255.438C1820.19 254.24 1820.19 254.24 1817.21 253.128C1812.62 254.28 1808.73 256.344 1804.62 258.637C1804 258.977 1803.39 259.316 1802.76 259.666C1800.82 260.747 1798.87 261.834 1796.93 262.921C1795.64 263.64 1794.35 264.358 1793.06 265.075C1786.27 268.845 1786.27 268.845 1779.52 272.679C1778.74 273.126 1777.96 273.572 1777.15 274.032C1776.5 274.41 1775.85 274.787 1775.19 275.175C1770.92 277.22 1766.65 277.792 1762.11 276.415C1757.78 274.452 1754.93 272.156 1752.33 268.099C1749.95 260.967 1751.6 253.273 1752.86 246.032C1753.02 245.104 1753.17 244.176 1753.33 243.22C1753.82 240.284 1754.32 237.349 1754.83 234.415C1755.33 231.465 1755.83 228.516 1756.32 225.566C1756.63 223.738 1756.94 221.911 1757.26 220.084C1757.64 217.795 1757.99 215.504 1758.32 213.206C1758.46 212.307 1758.61 211.407 1758.76 210.481C1758.06 206.833 1755.49 204.793 1752.89 202.333C1752.05 201.508 1752.05 201.508 1751.19 200.666C1749.4 198.908 1747.59 197.168 1745.78 195.428C1743.43 193.139 1741.08 190.843 1738.73 188.547C1738.17 187.997 1737.6 187.448 1737.02 186.881C1733.41 183.35 1729.98 179.729 1726.73 175.858C1725.39 174.236 1725.39 174.236 1723.76 172.712C1720.88 169.721 1720.64 165.304 1720.39 161.307C1721.09 157.088 1722.91 154.04 1725.26 150.516C1732.46 145.476 1742.3 145.159 1750.85 144.297C1753.41 144.013 1755.97 143.723 1758.52 143.431C1760.27 143.246 1762.01 143.086 1763.76 142.949C1773.52 142.422 1773.52 142.422 1781.77 137.863C1784.42 134.078 1785.98 129.906 1787.48 125.563C1788.72 122.101 1790.3 118.811 1791.85 115.483C1792.43 114.198 1793.01 112.913 1793.59 111.627C1794.02 110.68 1794.02 110.68 1794.45 109.713C1795.03 108.413 1795.61 107.111 1796.18 105.807C1801.51 93.6433 1806.69 84.8458 1821.2 86.4533ZM1815.21 108.41C1814.75 109.386 1814.29 110.362 1813.82 111.367C1812.1 115.032 1810.38 118.696 1808.66 122.36C1807.92 123.938 1807.18 125.515 1806.44 127.093C1804.68 130.851 1802.91 134.606 1801.13 138.355C1799.99 140.736 1798.89 143.122 1797.82 145.53C1797.42 146.406 1797.02 147.282 1796.6 148.184C1796.28 148.906 1795.96 149.627 1795.64 150.37C1792.54 154.738 1788.59 156.439 1783.48 157.38C1781.61 157.656 1779.75 157.917 1777.89 158.165C1776.9 158.31 1775.92 158.454 1774.9 158.603C1771.77 159.062 1768.63 159.5 1765.49 159.935C1762.34 160.379 1759.19 160.828 1756.03 161.288C1754.08 161.573 1752.12 161.848 1750.16 162.114C1749.28 162.241 1748.4 162.368 1747.49 162.499C1746.32 162.66 1746.32 162.66 1745.13 162.825C1744.55 162.983 1743.96 163.141 1743.35 163.303C1743.02 163.962 1742.69 164.621 1742.35 165.299C1746.39 170.145 1750.67 174.695 1755.15 179.128C1755.67 179.641 1756.19 180.153 1756.73 180.682C1758.88 182.813 1761.05 184.942 1763.22 187.065C1764.82 188.636 1766.41 190.213 1768 191.791C1768.49 192.264 1768.98 192.737 1769.48 193.224C1773.02 196.741 1775.93 199.837 1776.69 204.884C1776.61 214.863 1774.97 224.433 1773.23 234.227C1772.79 236.732 1772.35 239.238 1771.92 241.745C1771.65 243.291 1771.38 244.837 1771.1 246.38C1770.25 251.313 1770.25 251.313 1771.3 256.122C1772.07 255.705 1772.84 255.288 1773.64 254.859C1776.58 253.274 1779.52 251.691 1782.47 250.11C1783.73 249.432 1784.99 248.754 1786.25 248.075C1789.95 246.081 1793.65 244.109 1797.37 242.151C1799.25 241.145 1801.11 240.106 1802.97 239.062C1814.05 232.964 1814.05 232.964 1819.82 234.249C1825.51 236.438 1830.8 239.364 1836.11 242.337C1837.33 243.004 1838.55 243.67 1839.77 244.335C1846.03 247.757 1852.19 251.305 1858.24 255.086C1860.05 256.282 1860.05 256.282 1862.12 256.122C1861.94 255.006 1861.77 253.889 1861.58 252.739C1860.92 248.543 1860.27 244.347 1859.61 240.15C1859.33 238.344 1859.05 236.538 1858.76 234.732C1857.96 229.63 1857.18 224.526 1856.45 219.412C1856.17 217.454 1855.87 215.499 1855.58 213.543C1854.76 206.985 1855.01 202.553 1859.12 197.237C1862.23 193.739 1865.54 190.491 1868.92 187.257C1876.45 179.949 1883.6 172.58 1890.06 164.301C1888.55 162.792 1887.02 162.908 1884.92 162.612C1884.04 162.485 1883.16 162.358 1882.26 162.227C1881.3 162.092 1880.34 161.957 1879.35 161.818C1877.34 161.522 1875.32 161.225 1873.31 160.927C1870.12 160.46 1866.93 159.998 1863.74 159.548C1860.67 159.113 1857.6 158.658 1854.53 158.2C1853.58 158.071 1852.63 157.942 1851.65 157.809C1846.15 156.971 1842.47 155.925 1838.16 152.325C1836.29 149.389 1836.29 149.389 1834.61 145.775C1834.29 145.112 1833.98 144.448 1833.65 143.765C1832.92 142.224 1832.19 140.678 1831.47 139.131C1829.08 134.003 1826.64 128.901 1824.2 123.798C1823.32 121.959 1822.46 120.115 1821.59 118.27C1821.05 117.138 1820.51 116.006 1819.96 114.839C1819.48 113.817 1818.99 112.795 1818.5 111.742C1817.42 109.282 1817.42 109.282 1815.21 108.41Z" fill="#5D1E37"></path></g><path id="Satisfa&#xC3;&#xA7;&#xC3;&#xA3;o Garantida" d="M2146.24 232.313C2136.49 232.313 2127.84 230.582 2120.27 227.12C2112.71 223.658 2106.75 218.721 2102.39 212.31C2098.15 205.899 2095.97 198.27 2095.85 189.423H2120.27C2120.4 193.911 2121.43 197.95 2123.35 201.54C2125.4 205.002 2128.35 207.759 2132.2 209.81C2136.04 211.862 2140.72 212.887 2146.24 212.887C2150.72 212.887 2154.64 212.246 2157.97 210.964C2161.43 209.682 2164.19 207.694 2166.24 205.002C2168.29 202.309 2169.32 198.911 2169.32 194.808C2169.32 190.705 2168.29 187.243 2166.24 184.422C2164.19 181.602 2161.43 179.229 2157.97 177.306C2154.51 175.383 2150.6 173.716 2146.24 172.306C2142.01 170.767 2137.58 169.228 2132.97 167.69C2121.81 163.843 2113.41 158.971 2107.77 153.072C2102.13 147.174 2099.31 139.609 2099.31 130.377C2099.31 122.812 2101.17 116.273 2104.89 110.76C2108.73 105.118 2113.99 100.758 2120.66 97.6811C2127.45 94.6038 2135.27 93.0652 2144.12 93.0652C2153.1 93.0652 2160.92 94.6679 2167.59 97.8735C2174.25 101.079 2179.51 105.567 2183.36 111.337C2187.33 116.978 2189.38 123.774 2189.51 131.724H2164.89C2164.89 127.877 2164 124.479 2162.2 121.53C2160.41 118.581 2157.91 116.273 2154.7 114.606C2151.62 112.939 2147.78 112.106 2143.16 112.106C2139.44 112.106 2136.04 112.683 2132.97 113.837C2130.02 114.863 2127.65 116.658 2125.85 119.222C2124.05 121.658 2123.16 124.8 2123.16 128.646C2123.16 131.98 2123.93 134.865 2125.47 137.301C2127 139.609 2129.18 141.661 2132 143.456C2134.95 145.123 2138.48 146.79 2142.58 148.457C2146.81 149.995 2151.49 151.662 2156.62 153.457C2163.29 155.765 2169.38 158.522 2174.89 161.727C2180.41 164.805 2184.77 168.78 2187.97 173.652C2191.31 178.524 2192.97 184.935 2192.97 192.885C2192.97 199.809 2191.18 206.284 2187.59 212.31C2184.13 218.337 2178.93 223.209 2172.01 226.928C2165.09 230.518 2156.49 232.313 2146.24 232.313ZM2234.84 232.313C2227.28 232.313 2220.99 231.031 2215.99 228.466C2211.12 225.774 2207.47 222.248 2205.03 217.888C2202.72 213.4 2201.57 208.528 2201.57 203.271C2201.57 197.244 2203.11 192.052 2206.18 187.692C2209.39 183.204 2214.07 179.742 2220.22 177.306C2226.38 174.742 2234.01 173.46 2243.11 173.46H2267.54C2267.54 168.203 2266.77 163.907 2265.23 160.573C2263.82 157.111 2261.58 154.611 2258.5 153.072C2255.55 151.406 2251.83 150.572 2247.34 150.572C2242.09 150.572 2237.47 151.854 2233.5 154.419C2229.65 156.855 2227.34 160.702 2226.57 165.959H2203.88C2204.52 159.035 2206.76 153.072 2210.61 148.072C2214.45 143.071 2219.52 139.225 2225.8 136.532C2232.21 133.711 2239.46 132.301 2247.54 132.301C2256.64 132.301 2264.4 133.903 2270.81 137.109C2277.35 140.186 2282.28 144.61 2285.62 150.38C2288.95 156.15 2290.62 163.138 2290.62 171.344V230.005H2271.58L2269.08 214.618H2268.31C2266.51 217.696 2264.4 220.324 2261.96 222.504C2259.52 224.684 2256.9 226.479 2254.07 227.889C2251.38 229.3 2248.37 230.39 2245.04 231.159C2241.83 231.928 2238.43 232.313 2234.84 232.313ZM2241.96 214.041C2245.8 214.041 2249.2 213.4 2252.15 212.118C2255.23 210.708 2257.79 208.784 2259.84 206.348C2261.9 203.912 2263.5 201.155 2264.65 198.078C2265.94 195.001 2266.7 191.731 2266.96 188.269H2245.61C2241 188.269 2237.21 188.846 2234.26 190C2231.32 191.154 2229.14 192.757 2227.73 194.808C2226.44 196.732 2225.8 198.975 2225.8 201.54C2225.8 204.233 2226.44 206.54 2227.73 208.464C2229.14 210.259 2230.99 211.669 2233.3 212.695C2235.74 213.593 2238.62 214.041 2241.96 214.041ZM2343.41 230.005C2337 230.005 2331.36 228.979 2326.49 226.928C2321.62 224.876 2317.83 221.478 2315.14 216.734C2312.58 211.99 2311.29 205.579 2311.29 197.501V152.688H2294.95V134.609H2311.29L2313.79 109.606H2334.37V134.609H2360.53V152.688H2334.37V197.501C2334.37 202.758 2335.4 206.348 2337.45 208.271C2339.5 210.195 2343.09 211.156 2348.22 211.156H2359.76V230.005H2343.41ZM2370.45 230.005V134.609H2393.53V230.005H2370.45ZM2381.99 120.569C2377.76 120.569 2374.23 119.286 2371.41 116.722C2368.72 114.029 2367.37 110.696 2367.37 106.721C2367.37 102.874 2368.72 99.6686 2371.41 97.1041C2374.23 94.4115 2377.76 93.0652 2381.99 93.0652C2386.22 93.0652 2389.75 94.4115 2392.57 97.1041C2395.39 99.6686 2396.8 102.938 2396.8 106.913C2396.8 110.76 2395.39 114.029 2392.57 116.722C2389.75 119.286 2386.22 120.569 2381.99 120.569ZM2449.57 232.313C2441.37 232.313 2434.06 230.967 2427.65 228.274C2421.24 225.453 2416.11 221.606 2412.26 216.734C2408.54 211.862 2406.3 206.22 2405.53 199.809H2428.61C2429.38 202.373 2430.53 204.81 2432.07 207.117C2433.74 209.425 2435.98 211.349 2438.8 212.887C2441.62 214.298 2445.15 215.003 2449.38 215.003C2453.1 215.003 2456.18 214.49 2458.61 213.464C2461.05 212.31 2462.84 210.836 2464 209.041C2465.15 207.246 2465.73 205.387 2465.73 203.463C2465.73 200.771 2464.9 198.655 2463.23 197.116C2461.56 195.449 2459.13 194.039 2455.92 192.885C2452.71 191.731 2448.93 190.577 2444.57 189.423C2440.6 188.269 2436.49 187.051 2432.26 185.769C2428.03 184.358 2424.19 182.691 2420.72 180.768C2417.26 178.845 2414.44 176.345 2412.26 173.267C2410.08 170.062 2408.99 166.087 2408.99 161.343C2408.99 155.957 2410.47 151.085 2413.41 146.726C2416.49 142.238 2420.85 138.712 2426.49 136.147C2432.14 133.583 2438.93 132.301 2446.88 132.301C2457.91 132.301 2466.75 134.929 2473.42 140.186C2480.22 145.315 2484.19 152.56 2485.35 161.92H2463.42C2462.78 157.945 2460.98 154.932 2458.04 152.88C2455.21 150.829 2451.43 149.803 2446.69 149.803C2441.82 149.803 2438.03 150.764 2435.34 152.688C2432.78 154.611 2431.49 156.983 2431.49 159.804C2431.49 161.856 2432.26 163.587 2433.8 164.997C2435.47 166.407 2437.84 167.626 2440.92 168.651C2444 169.549 2447.78 170.703 2452.27 172.113C2458.93 173.908 2464.96 175.832 2470.34 177.883C2475.86 179.935 2480.28 182.756 2483.62 186.346C2487.08 189.808 2488.81 194.744 2488.81 201.155C2488.94 207.053 2487.4 212.375 2484.19 217.119C2480.99 221.863 2476.44 225.581 2470.54 228.274C2464.64 230.967 2457.65 232.313 2449.57 232.313ZM2506.07 230.005V126.338C2506.07 118.902 2507.29 112.939 2509.73 108.452C2512.29 103.836 2515.95 100.502 2520.69 98.4505C2525.44 96.3989 2531.08 95.3732 2537.62 95.3732H2548V114.222H2541.08C2536.85 114.222 2533.77 115.119 2531.85 116.914C2530.05 118.709 2529.15 121.723 2529.15 125.954V230.005H2506.07ZM2492.61 152.688V134.609H2550.12V152.688H2492.61ZM2587.72 232.313C2580.16 232.313 2573.88 231.031 2568.88 228.466C2564 225.774 2560.35 222.248 2557.91 217.888C2555.6 213.4 2554.45 208.528 2554.45 203.271C2554.45 197.244 2555.99 192.052 2559.07 187.692C2562.27 183.204 2566.95 179.742 2573.11 177.306C2579.26 174.742 2586.89 173.46 2595.99 173.46H2620.42C2620.42 168.203 2619.65 163.907 2618.11 160.573C2616.7 157.111 2614.46 154.611 2611.38 153.072C2608.43 151.406 2604.71 150.572 2600.23 150.572C2594.97 150.572 2590.35 151.854 2586.38 154.419C2582.53 156.855 2580.22 160.702 2579.45 165.959H2556.76C2557.4 159.035 2559.64 153.072 2563.49 148.072C2567.34 143.071 2572.4 139.225 2578.68 136.532C2585.1 133.711 2592.34 132.301 2600.42 132.301C2609.52 132.301 2617.28 133.903 2623.69 137.109C2630.23 140.186 2635.17 144.61 2638.5 150.38C2641.83 156.15 2643.5 163.138 2643.5 171.344V230.005H2624.46L2621.96 214.618H2621.19C2619.39 217.696 2617.28 220.324 2614.84 222.504C2612.41 224.684 2609.78 226.479 2606.96 227.889C2604.26 229.3 2601.25 230.39 2597.92 231.159C2594.71 231.928 2591.31 232.313 2587.72 232.313ZM2594.84 214.041C2598.69 214.041 2602.08 213.4 2605.03 212.118C2608.11 210.708 2610.68 208.784 2612.73 206.348C2614.78 203.912 2616.38 201.155 2617.54 198.078C2618.82 195.001 2619.59 191.731 2619.84 188.269H2598.49C2593.88 188.269 2590.1 188.846 2587.15 190C2584.2 191.154 2582.02 192.757 2580.61 194.808C2579.33 196.732 2578.68 198.975 2578.68 201.54C2578.68 204.233 2579.33 206.54 2580.61 208.464C2582.02 210.259 2583.88 211.669 2586.19 212.695C2588.62 213.593 2591.51 214.041 2594.84 214.041ZM2702.61 232.313C2692.48 232.313 2683.69 230.197 2676.26 225.966C2668.95 221.735 2663.24 215.901 2659.14 208.464C2655.17 200.899 2653.18 192.18 2653.18 182.307C2653.18 172.434 2655.29 163.779 2659.53 156.342C2663.76 148.905 2669.59 143.071 2677.03 138.84C2684.59 134.48 2693.18 132.301 2702.8 132.301C2714.85 132.301 2724.98 135.442 2733.19 141.725C2741.39 148.008 2746.59 156.599 2748.77 167.497H2724.53C2723.25 162.24 2720.62 158.265 2716.65 155.573C2712.67 152.752 2707.93 151.341 2702.41 151.341C2697.8 151.341 2693.5 152.56 2689.53 154.996C2685.68 157.304 2682.54 160.766 2680.1 165.382C2677.8 169.998 2676.64 175.639 2676.64 182.307C2676.64 187.179 2677.28 191.475 2678.57 195.193C2679.85 198.911 2681.64 202.117 2683.95 204.81C2686.39 207.374 2689.14 209.361 2692.22 210.772C2695.3 212.182 2698.7 212.887 2702.41 212.887C2706.13 212.887 2709.47 212.246 2712.42 210.964C2715.49 209.682 2718.06 207.887 2720.11 205.579C2722.29 203.271 2723.76 200.45 2724.53 197.116H2748.77C2746.59 207.759 2741.33 216.285 2733 222.696C2724.79 229.107 2714.66 232.313 2702.61 232.313ZM2685.11 280.78V267.317H2705.88C2709.6 267.317 2712.35 266.74 2714.15 265.586C2715.94 264.432 2716.84 262.509 2716.84 259.816C2716.84 257.508 2715.94 255.777 2714.15 254.623C2712.35 253.469 2709.6 252.892 2705.88 252.892H2694.72V229.043H2709.15V240.391C2713.63 240.391 2717.74 241.032 2721.46 242.314C2725.3 243.724 2728.38 245.904 2730.69 248.853C2733 251.931 2734.15 255.777 2734.15 260.393C2734.15 264.881 2733 268.599 2730.69 271.548C2728.51 274.626 2725.49 276.934 2721.65 278.472C2717.93 280.011 2713.83 280.78 2709.34 280.78H2685.11ZM2790.67 232.313C2783.11 232.313 2776.82 231.031 2771.82 228.466C2766.95 225.774 2763.3 222.248 2760.86 217.888C2758.55 213.4 2757.4 208.528 2757.4 203.271C2757.4 197.244 2758.94 192.052 2762.01 187.692C2765.22 183.204 2769.9 179.742 2776.05 177.306C2782.21 174.742 2789.84 173.46 2798.94 173.46H2823.37C2823.37 168.203 2822.6 163.907 2821.06 160.573C2819.65 157.111 2817.4 154.611 2814.33 153.072C2811.38 151.406 2807.66 150.572 2803.17 150.572C2797.92 150.572 2793.3 151.854 2789.32 154.419C2785.48 156.855 2783.17 160.702 2782.4 165.959H2759.71C2760.35 159.035 2762.59 153.072 2766.44 148.072C2770.28 143.071 2775.35 139.225 2781.63 136.532C2788.04 133.711 2795.29 132.301 2803.36 132.301C2812.47 132.301 2820.23 133.903 2826.64 137.109C2833.18 140.186 2838.11 144.61 2841.45 150.38C2844.78 156.15 2846.45 163.138 2846.45 171.344V230.005H2827.41L2824.91 214.618H2824.14C2822.34 217.696 2820.23 220.324 2817.79 222.504C2815.35 224.684 2812.72 226.479 2809.9 227.889C2807.21 229.3 2804.2 230.39 2800.86 231.159C2797.66 231.928 2794.26 232.313 2790.67 232.313ZM2797.79 214.041C2801.63 214.041 2805.03 213.4 2807.98 212.118C2811.06 210.708 2813.62 208.784 2815.67 206.348C2817.73 203.912 2819.33 201.155 2820.48 198.078C2821.76 195.001 2822.53 191.731 2822.79 188.269H2801.44C2796.83 188.269 2793.04 188.846 2790.09 190C2787.14 191.154 2784.96 192.757 2783.55 194.808C2782.27 196.732 2781.63 198.975 2781.63 201.54C2781.63 204.233 2782.27 206.54 2783.55 208.464C2784.96 210.259 2786.82 211.669 2789.13 212.695C2791.57 213.593 2794.45 214.041 2797.79 214.041ZM2813.17 121.915C2809.58 121.915 2806.51 121.21 2803.94 119.799C2801.51 118.261 2799.2 116.786 2797.02 115.376C2794.84 113.837 2792.47 113.068 2789.9 113.068C2787.72 113.068 2785.86 113.773 2784.32 115.183C2782.91 116.594 2782.02 118.773 2781.63 121.723H2769.13C2770.28 113.773 2772.78 107.939 2776.63 104.22C2780.48 100.374 2785.22 98.4505 2790.86 98.4505C2794.45 98.4505 2797.47 99.2198 2799.9 100.758C2802.47 102.169 2804.84 103.643 2807.02 105.182C2809.2 106.721 2811.57 107.49 2814.14 107.49C2816.31 107.49 2818.11 106.785 2819.52 105.374C2821.06 103.836 2822.02 101.656 2822.41 98.8351H2835.1C2833.95 106.657 2831.38 112.491 2827.41 116.337C2823.56 120.056 2818.82 121.915 2813.17 121.915ZM2904.59 232.313C2895.49 232.313 2887.28 230.197 2879.97 225.966C2872.67 221.735 2866.83 215.901 2862.47 208.464C2858.24 200.899 2856.12 192.18 2856.12 182.307C2856.12 172.434 2858.24 163.715 2862.47 156.15C2866.83 148.585 2872.67 142.751 2879.97 138.648C2887.41 134.416 2895.68 132.301 2904.78 132.301C2914.02 132.301 2922.29 134.416 2929.6 138.648C2936.9 142.751 2942.67 148.585 2946.91 156.15C2951.26 163.715 2953.44 172.434 2953.44 182.307C2953.44 192.18 2951.26 200.899 2946.91 208.464C2942.67 215.901 2936.84 221.735 2929.4 225.966C2922.09 230.197 2913.82 232.313 2904.59 232.313ZM2904.59 213.272C2909.21 213.272 2913.38 212.118 2917.09 209.81C2920.94 207.502 2924.02 204.104 2926.33 199.617C2928.76 195.001 2929.98 189.231 2929.98 182.307C2929.98 175.383 2928.83 169.613 2926.52 164.997C2924.21 160.381 2921.13 156.983 2917.29 154.803C2913.44 152.495 2909.34 151.341 2904.98 151.341C2900.49 151.341 2896.32 152.495 2892.48 154.803C2888.63 156.983 2885.49 160.381 2883.05 164.997C2880.74 169.613 2879.59 175.383 2879.59 182.307C2879.59 189.231 2880.74 195.001 2883.05 199.617C2885.49 204.104 2888.56 207.502 2892.28 209.81C2896.13 212.118 2900.23 213.272 2904.59 213.272ZM2158.35 417.313C2146.43 417.313 2135.85 414.428 2126.62 408.658C2117.52 402.888 2110.4 394.874 2105.27 384.617C2100.27 374.231 2097.77 362.114 2097.77 348.266C2097.77 334.546 2100.46 322.43 2105.85 311.915C2111.23 301.273 2118.93 293.003 2128.93 287.105C2139.06 281.078 2150.98 278.065 2164.7 278.065C2180.34 278.065 2193.36 281.848 2203.74 289.413C2214.13 296.85 2220.8 307.235 2223.75 320.57H2197.78C2195.86 313.903 2192.08 308.71 2186.43 304.992C2180.92 301.273 2173.68 299.414 2164.7 299.414C2155.6 299.414 2147.78 301.401 2141.24 305.376C2134.83 309.223 2129.89 314.865 2126.43 322.301C2122.97 329.61 2121.23 338.329 2121.23 348.458C2121.23 358.588 2122.97 367.307 2126.43 374.615C2129.89 381.924 2134.76 387.502 2141.04 391.348C2147.33 395.067 2154.7 396.926 2163.16 396.926C2175.73 396.926 2185.22 393.4 2191.63 386.348C2198.04 379.295 2201.82 370.128 2202.97 358.844H2168.16V341.342H2226.25V415.005H2205.28L2203.17 390.771H2202.4C2199.32 396.541 2195.6 401.413 2191.24 405.388C2186.88 409.363 2181.95 412.376 2176.43 414.428C2171.05 416.351 2165.02 417.313 2158.35 417.313ZM2272.03 417.313C2264.47 417.313 2258.18 416.031 2253.18 413.466C2248.31 410.774 2244.66 407.248 2242.22 402.888C2239.91 398.4 2238.76 393.528 2238.76 388.271C2238.76 382.244 2240.3 377.052 2243.37 372.692C2246.58 368.204 2251.26 364.742 2257.41 362.306C2263.57 359.742 2271.2 358.46 2280.3 358.46H2304.73C2304.73 353.203 2303.96 348.907 2302.42 345.573C2301.01 342.111 2298.76 339.611 2295.69 338.072C2292.74 336.406 2289.02 335.572 2284.53 335.572C2279.28 335.572 2274.66 336.854 2270.68 339.419C2266.84 341.855 2264.53 345.702 2263.76 350.959H2241.07C2241.71 344.035 2243.95 338.072 2247.8 333.072C2251.64 328.071 2256.71 324.225 2262.99 321.532C2269.4 318.711 2276.65 317.301 2284.72 317.301C2293.83 317.301 2301.59 318.903 2308 322.109C2314.54 325.186 2319.47 329.61 2322.81 335.38C2326.14 341.15 2327.81 348.138 2327.81 356.344V415.005H2308.77L2306.27 399.618H2305.5C2303.7 402.696 2301.59 405.324 2299.15 407.504C2296.71 409.684 2294.08 411.479 2291.26 412.889C2288.57 414.3 2285.56 415.39 2282.22 416.159C2279.02 416.928 2275.62 417.313 2272.03 417.313ZM2279.15 399.041C2282.99 399.041 2286.39 398.4 2289.34 397.118C2292.42 395.708 2294.98 393.784 2297.03 391.348C2299.09 388.912 2300.69 386.155 2301.84 383.078C2303.12 380.001 2303.89 376.731 2304.15 373.269H2282.8C2278.19 373.269 2274.4 373.846 2271.45 375C2268.5 376.154 2266.32 377.757 2264.91 379.808C2263.63 381.732 2262.99 383.975 2262.99 386.54C2262.99 389.233 2263.63 391.54 2264.91 393.464C2266.32 395.259 2268.18 396.669 2270.49 397.695C2272.93 398.593 2275.81 399.041 2279.15 399.041ZM2340.37 415.005V319.609H2360.18L2362.1 340.38H2362.87C2365.82 333.713 2368.9 328.712 2372.1 325.379C2375.44 322.045 2379.22 319.865 2383.45 318.839C2387.68 317.814 2392.62 317.301 2398.26 317.301V341.534H2392.11C2387.49 341.534 2383.32 342.111 2379.61 343.265C2376.02 344.419 2373 346.15 2370.57 348.458C2368.26 350.638 2366.46 353.523 2365.18 357.113C2364.03 360.575 2363.45 364.806 2363.45 369.807V415.005H2340.37ZM2436.29 417.313C2428.72 417.313 2422.44 416.031 2417.44 413.466C2412.56 410.774 2408.91 407.248 2406.47 402.888C2404.17 398.4 2403.01 393.528 2403.01 388.271C2403.01 382.244 2404.55 377.052 2407.63 372.692C2410.83 368.204 2415.51 364.742 2421.67 362.306C2427.82 359.742 2435.45 358.46 2444.56 358.46H2468.98C2468.98 353.203 2468.21 348.907 2466.67 345.573C2465.26 342.111 2463.02 339.611 2459.94 338.072C2456.99 336.406 2453.28 335.572 2448.79 335.572C2443.53 335.572 2438.91 336.854 2434.94 339.419C2431.09 341.855 2428.78 345.702 2428.02 350.959H2405.32C2405.96 344.035 2408.21 338.072 2412.05 333.072C2415.9 328.071 2420.96 324.225 2427.25 321.532C2433.66 318.711 2440.9 317.301 2448.98 317.301C2458.08 317.301 2465.84 318.903 2472.25 322.109C2478.79 325.186 2483.73 329.61 2487.06 335.38C2490.39 341.15 2492.06 348.138 2492.06 356.344V415.005H2473.02L2470.52 399.618H2469.75C2467.96 402.696 2465.84 405.324 2463.4 407.504C2460.97 409.684 2458.34 411.479 2455.52 412.889C2452.83 414.3 2449.81 415.39 2446.48 416.159C2443.27 416.928 2439.88 417.313 2436.29 417.313ZM2443.4 399.041C2447.25 399.041 2450.65 398.4 2453.6 397.118C2456.67 395.708 2459.24 393.784 2461.29 391.348C2463.34 388.912 2464.94 386.155 2466.1 383.078C2467.38 380.001 2468.15 376.731 2468.41 373.269H2447.06C2442.44 373.269 2438.66 373.846 2435.71 375C2432.76 376.154 2430.58 377.757 2429.17 379.808C2427.89 381.732 2427.25 383.975 2427.25 386.54C2427.25 389.233 2427.89 391.54 2429.17 393.464C2430.58 395.259 2432.44 396.669 2434.75 397.695C2437.18 398.593 2440.07 399.041 2443.4 399.041ZM2504.62 415.005V319.609H2524.44L2526.36 334.995H2527.13C2530.33 329.482 2534.56 325.186 2539.82 322.109C2545.21 318.903 2551.81 317.301 2559.63 317.301C2567.32 317.301 2573.93 318.968 2579.44 322.301C2584.96 325.507 2589.19 330.379 2592.14 336.918C2595.08 343.33 2596.56 351.279 2596.56 360.768V415.005H2573.67V363.076C2573.67 354.613 2571.88 348.138 2568.29 343.65C2564.82 339.034 2559.44 336.726 2552.13 336.726C2547.39 336.726 2543.16 337.88 2539.44 340.188C2535.85 342.496 2532.96 345.83 2530.78 350.189C2528.73 354.421 2527.7 359.614 2527.7 365.768V415.005H2504.62ZM2650.75 415.005C2644.33 415.005 2638.69 413.979 2633.82 411.928C2628.95 409.876 2625.17 406.478 2622.47 401.734C2619.91 396.99 2618.63 390.579 2618.63 382.501V337.688H2602.28V319.609H2618.63L2621.13 294.606H2641.71V319.609H2667.86V337.688H2641.71V382.501C2641.71 387.758 2642.73 391.348 2644.78 393.271C2646.83 395.195 2650.42 396.156 2655.55 396.156H2667.09V415.005H2650.75ZM2677.78 415.005V319.609H2700.86V415.005H2677.78ZM2689.32 305.569C2685.09 305.569 2681.56 304.286 2678.74 301.722C2676.05 299.029 2674.7 295.696 2674.7 291.721C2674.7 287.874 2676.05 284.669 2678.74 282.104C2681.56 279.412 2685.09 278.065 2689.32 278.065C2693.55 278.065 2697.08 279.412 2699.9 282.104C2702.72 284.669 2704.13 287.938 2704.13 291.913C2704.13 295.76 2702.72 299.029 2699.9 301.722C2697.08 304.286 2693.55 305.569 2689.32 305.569ZM2759.6 417.313C2750.49 417.313 2742.54 415.133 2735.75 410.774C2729.08 406.414 2723.89 400.516 2720.17 393.079C2716.58 385.514 2714.78 376.923 2714.78 367.307C2714.78 357.818 2716.58 349.292 2720.17 341.727C2723.89 334.162 2729.21 328.199 2736.13 323.84C2743.06 319.48 2751.26 317.301 2760.75 317.301C2768.57 317.301 2775.24 318.839 2780.75 321.917C2786.4 324.994 2790.75 328.712 2793.83 333.072V280.373H2816.91V415.005H2797.68L2796.14 397.695H2795.37C2792.93 401.926 2789.92 405.517 2786.33 408.466C2782.74 411.286 2778.7 413.466 2774.21 415.005C2769.85 416.544 2764.98 417.313 2759.6 417.313ZM2765.94 398.08C2771.71 398.08 2776.65 396.798 2780.75 394.233C2784.98 391.54 2788.25 387.886 2790.56 383.27C2793 378.654 2794.22 373.269 2794.22 367.114C2794.22 361.088 2793 355.767 2790.56 351.151C2788.25 346.535 2784.98 342.945 2780.75 340.38C2776.65 337.688 2771.71 336.341 2765.94 336.341C2760.43 336.341 2755.56 337.688 2751.33 340.38C2747.1 342.945 2743.83 346.535 2741.52 351.151C2739.21 355.767 2738.06 361.088 2738.06 367.114C2738.06 373.269 2739.21 378.654 2741.52 383.27C2743.83 387.886 2747.1 391.54 2751.33 394.233C2755.56 396.798 2760.43 398.08 2765.94 398.08ZM2862.61 417.313C2855.04 417.313 2848.76 416.031 2843.76 413.466C2838.89 410.774 2835.23 407.248 2832.8 402.888C2830.49 398.4 2829.33 393.528 2829.33 388.271C2829.33 382.244 2830.87 377.052 2833.95 372.692C2837.16 368.204 2841.84 364.742 2847.99 362.306C2854.14 359.742 2861.77 358.46 2870.88 358.46H2895.3C2895.3 353.203 2894.53 348.907 2893 345.573C2891.58 342.111 2889.34 339.611 2886.26 338.072C2883.31 336.406 2879.6 335.572 2875.11 335.572C2869.85 335.572 2865.24 336.854 2861.26 339.419C2857.41 341.855 2855.11 345.702 2854.34 350.959H2831.64C2832.28 344.035 2834.53 338.072 2838.37 333.072C2842.22 328.071 2847.28 324.225 2853.57 321.532C2859.98 318.711 2867.22 317.301 2875.3 317.301C2884.4 317.301 2892.16 318.903 2898.57 322.109C2905.11 325.186 2910.05 329.61 2913.38 335.38C2916.72 341.15 2918.38 348.138 2918.38 356.344V415.005H2899.34L2896.84 399.618H2896.07C2894.28 402.696 2892.16 405.324 2889.73 407.504C2887.29 409.684 2884.66 411.479 2881.84 412.889C2879.15 414.3 2876.13 415.39 2872.8 416.159C2869.6 416.928 2866.2 417.313 2862.61 417.313ZM2869.72 399.041C2873.57 399.041 2876.97 398.4 2879.92 397.118C2882.99 395.708 2885.56 393.784 2887.61 391.348C2889.66 388.912 2891.26 386.155 2892.42 383.078C2893.7 380.001 2894.47 376.731 2894.73 373.269H2873.38C2868.76 373.269 2864.98 373.846 2862.03 375C2859.08 376.154 2856.9 377.757 2855.49 379.808C2854.21 381.732 2853.57 383.975 2853.57 386.54C2853.57 389.233 2854.21 391.54 2855.49 393.464C2856.9 395.259 2858.76 396.669 2861.07 397.695C2863.5 398.593 2866.39 399.041 2869.72 399.041Z" fill="#5D1E37"></path></g><path id="Vector 1_2" d="M3159.04 0.869141V513.139" stroke="#5D1E37" stroke-width="8"></path><g id="privacidade"><g id="Group 1"><path id="Vector_6" d="M3423.99 224.739C3425.12 224.736 3426.26 224.732 3427.43 224.728C3431.22 224.718 3435 224.721 3438.79 224.725C3441.51 224.722 3444.24 224.716 3446.96 224.71C3453.58 224.697 3460.2 224.695 3466.81 224.698C3472.19 224.7 3477.58 224.698 3482.96 224.694C3484.11 224.693 3484.11 224.693 3485.28 224.692C3486.84 224.69 3488.4 224.689 3489.96 224.688C3504.56 224.677 3519.17 224.679 3533.77 224.685C3547.12 224.691 3560.46 224.679 3573.81 224.66C3587.53 224.641 3601.25 224.633 3614.97 224.636C3622.66 224.638 3630.36 224.636 3638.05 224.622C3644.61 224.61 3651.16 224.608 3657.71 224.621C3661.05 224.626 3664.39 224.626 3667.73 224.616C3671.35 224.605 3674.98 224.613 3678.61 224.626C3680.17 224.615 3680.17 224.615 3681.77 224.604C3698.72 224.728 3715 232.124 3726.87 244.145C3740.5 259.375 3743.73 275.851 3743.7 295.554C3743.7 297.331 3743.71 299.107 3743.72 300.884C3743.73 305.69 3743.73 310.496 3743.73 315.301C3743.73 319.322 3743.73 323.343 3743.74 327.364C3743.75 336.854 3743.75 346.344 3743.74 355.834C3743.74 365.604 3743.75 375.375 3743.77 385.146C3743.79 393.553 3743.79 401.96 3743.79 410.367C3743.79 415.38 3743.79 420.393 3743.8 425.406C3743.82 430.123 3743.81 434.839 3743.8 439.555C3743.8 441.28 3743.8 443.004 3743.81 444.728C3743.9 463.81 3739.14 480.947 3725.71 495.039C3712.77 507.818 3696.67 513.325 3678.86 513.261C3677.73 513.265 3676.59 513.268 3675.42 513.272C3671.64 513.283 3667.85 513.279 3664.06 513.275C3661.34 513.278 3658.61 513.284 3655.89 513.29C3649.27 513.303 3642.66 513.305 3636.04 513.302C3630.66 513.301 3625.28 513.302 3619.89 513.307C3619.13 513.307 3618.36 513.308 3617.57 513.308C3616.01 513.31 3614.45 513.311 3612.89 513.312C3598.29 513.323 3583.69 513.321 3569.08 513.315C3555.74 513.31 3542.39 513.321 3529.05 513.34C3515.33 513.359 3501.61 513.367 3487.89 513.364C3480.19 513.362 3472.49 513.364 3464.8 513.378C3458.25 513.39 3451.7 513.392 3445.14 513.38C3441.8 513.374 3438.47 513.374 3435.13 513.385C3431.5 513.395 3427.87 513.387 3424.24 513.374C3423.2 513.382 3422.16 513.389 3421.08 513.397C3404.13 513.273 3387.85 505.877 3375.98 493.856C3362.35 478.625 3359.12 462.149 3359.15 442.446C3359.15 440.669 3359.14 438.893 3359.14 437.116C3359.12 432.31 3359.12 427.505 3359.12 422.699C3359.13 418.678 3359.12 414.657 3359.12 410.637C3359.1 401.147 3359.1 391.657 3359.11 382.167C3359.12 372.396 3359.1 362.625 3359.08 352.854C3359.06 344.447 3359.06 336.04 3359.06 327.633C3359.06 322.62 3359.06 317.607 3359.05 312.594C3359.03 307.877 3359.04 303.161 3359.05 298.445C3359.05 296.721 3359.05 294.997 3359.04 293.273C3358.96 274.19 3363.71 257.053 3377.15 242.961C3390.09 230.182 3406.18 224.675 3423.99 224.739ZM3527.43 332C3520.88 341.367 3519.54 348.564 3520.43 360C3522.35 367.843 3527.77 374.564 3534.43 379C3534.8 381.23 3534.8 381.23 3534.81 384.041C3534.82 385.093 3534.83 386.145 3534.84 387.229C3534.84 388.372 3534.84 389.514 3534.83 390.691C3534.84 391.866 3534.85 393.04 3534.86 394.25C3534.9 398.021 3534.91 401.792 3534.93 405.563C3534.94 410.502 3534.97 415.44 3535.02 420.379C3535.02 421.507 3535.01 422.636 3535.01 423.799C3535.09 434.432 3535.09 434.432 3539.88 443.619C3544.62 447.683 3547.82 448.356 3553.89 448.277C3557.65 447.866 3559.64 446.517 3562.43 444C3566.66 438.622 3567.57 434.314 3567.49 427.602C3567.48 426.547 3567.47 425.493 3567.46 424.406C3567.45 423.275 3567.44 422.145 3567.43 420.981C3567.42 418.572 3567.43 416.164 3567.43 413.756C3567.43 409.97 3567.43 406.186 3567.37 402.4C3567.33 398.738 3567.34 395.08 3567.36 391.418C3567.34 390.294 3567.31 389.17 3567.28 388.011C3567.4 380.241 3567.4 380.241 3570.41 376.604C3572.84 374.493 3572.84 374.493 3575.25 372.735C3579.37 369.45 3580.79 364.907 3582.43 360C3583.27 349.407 3582.36 340.695 3575.68 332.188C3570.16 326.286 3563.2 322.487 3555.13 321.664C3544.19 321.54 3534.86 323.442 3527.43 332Z" fill="#5D1E37"></path><path id="Vector_7" d="M3551.36 0.624674C3552.06 0.629327 3552.76 0.63398 3553.49 0.638773C3563.74 0.718526 3573.5 1.1343 3583.43 3.99967C3584.11 4.18772 3584.8 4.37576 3585.5 4.5695C3617.42 13.4746 3645.47 34.4566 3662.43 62.9997C3669.1 75.005 3674.49 87.5469 3677.43 101C3677.68 102.103 3677.68 102.103 3677.95 103.228C3680.11 113.996 3679.68 124.898 3679.62 135.828C3679.62 138.03 3679.61 140.233 3679.61 142.435C3679.6 148.196 3679.59 153.956 3679.56 159.716C3679.54 166.647 3679.53 173.578 3679.52 180.509C3679.5 191.006 3679.46 201.503 3679.43 212C3658.31 212 3637.19 212 3615.43 212C3615.38 206.182 3615.33 200.365 3615.28 194.371C3615.24 190.657 3615.21 186.942 3615.17 183.228C3615.11 177.35 3615.05 171.471 3615 165.593C3614.97 160.846 3614.92 156.1 3614.87 151.354C3614.85 149.555 3614.83 147.756 3614.82 145.957C3614.67 122.963 3612.53 101.962 3595.97 84.3981C3582.36 71.6008 3567.07 66.1904 3548.59 66.4081C3535.36 66.932 3524 70.9012 3513.43 78.9997C3512.57 79.6455 3511.72 80.2913 3510.85 80.9567C3498.24 91.3782 3490.51 106.294 3488.89 122.553C3488.16 131.094 3488.19 139.663 3488.11 148.23C3488.09 150.075 3488.07 151.92 3488.05 153.766C3487.99 158.587 3487.94 163.409 3487.89 168.231C3487.83 174.035 3487.77 179.838 3487.7 185.642C3487.61 194.428 3487.52 203.214 3487.43 212C3466.31 212 3445.19 212 3423.43 212C3423.31 187.934 3423.31 187.934 3423.28 177.59C3423.26 170.561 3423.24 163.533 3423.2 156.504C3423.17 150.831 3423.15 145.157 3423.14 139.484C3423.14 137.331 3423.12 135.178 3423.11 133.026C3423 117.529 3423.92 102.984 3428.99 88.1872C3429.24 87.4513 3429.49 86.7154 3429.75 85.9572C3441.12 54.2297 3464.59 27.6426 3494.99 13.0622C3503.21 9.27976 3511.61 6.11898 3520.43 3.99967C3521.5 3.74073 3522.58 3.48179 3523.69 3.21501C3532.96 1.16244 3541.84 0.511257 3551.36 0.624674Z" fill="#5D1E37"></path></g><path id="Privacidade Protegida" d="M3842.47 230.005V95.3732H3891.32C3902.09 95.3732 3910.94 97.1682 3917.86 100.758C3924.91 104.349 3930.11 109.221 3933.44 115.376C3936.9 121.53 3938.63 128.518 3938.63 136.34C3938.63 143.776 3936.97 150.572 3933.63 156.727C3930.43 162.881 3925.3 167.818 3918.25 171.536C3911.19 175.255 3902.22 177.114 3891.32 177.114H3865.55V230.005H3842.47ZM3865.55 158.265H3889.97C3898.95 158.265 3905.36 156.278 3909.21 152.303C3913.18 148.328 3915.17 143.007 3915.17 136.34C3915.17 129.416 3913.18 124.03 3909.21 120.184C3905.36 116.209 3898.95 114.222 3889.97 114.222H3865.55V158.265ZM3948.33 230.005V134.609H3968.14L3970.07 155.38H3970.83C3973.78 148.713 3976.86 143.712 3980.07 140.379C3983.4 137.045 3987.18 134.865 3991.41 133.839C3995.65 132.814 4000.58 132.301 4006.22 132.301V156.534H4000.07C3995.45 156.534 3991.29 157.111 3987.57 158.265C3983.98 159.419 3980.96 161.15 3978.53 163.458C3976.22 165.638 3974.43 168.523 3973.14 172.113C3971.99 175.575 3971.41 179.806 3971.41 184.807V230.005H3948.33ZM4015.98 230.005V134.609H4039.06V230.005H4015.98ZM4027.52 120.569C4023.28 120.569 4019.76 119.286 4016.94 116.722C4014.24 114.029 4012.9 110.696 4012.9 106.721C4012.9 102.874 4014.24 99.6686 4016.94 97.1041C4019.76 94.4115 4023.28 93.0652 4027.52 93.0652C4031.75 93.0652 4035.27 94.4115 4038.09 97.1041C4040.91 99.6686 4042.32 102.938 4042.32 106.913C4042.32 110.76 4040.91 114.029 4038.09 116.722C4035.27 119.286 4031.75 120.569 4027.52 120.569ZM4080.87 230.005L4049.13 134.609H4073.37L4097.41 214.041H4098.37L4122.41 134.609H4146.26L4114.53 230.005H4080.87ZM4184.27 232.313C4176.71 232.313 4170.43 231.031 4165.43 228.466C4160.55 225.774 4156.9 222.248 4154.46 217.888C4152.15 213.4 4151 208.528 4151 203.271C4151 197.244 4152.54 192.052 4155.62 187.692C4158.82 183.204 4163.5 179.742 4169.66 177.306C4175.81 174.742 4183.44 173.46 4192.54 173.46H4216.97C4216.97 168.203 4216.2 163.907 4214.66 160.573C4213.25 157.111 4211.01 154.611 4207.93 153.072C4204.98 151.406 4201.26 150.572 4196.78 150.572C4191.52 150.572 4186.9 151.854 4182.93 154.419C4179.08 156.855 4176.77 160.702 4176 165.959H4153.31C4153.95 159.035 4156.19 153.072 4160.04 148.072C4163.89 143.071 4168.95 139.225 4175.23 136.532C4181.65 133.711 4188.89 132.301 4196.97 132.301C4206.07 132.301 4213.83 133.903 4220.24 137.109C4226.78 140.186 4231.72 144.61 4235.05 150.38C4238.38 156.15 4240.05 163.138 4240.05 171.344V230.005H4221.01L4218.51 214.618H4217.74C4215.94 217.696 4213.83 220.324 4211.39 222.504C4208.96 224.684 4206.33 226.479 4203.51 227.889C4200.81 229.3 4197.8 230.39 4194.47 231.159C4191.26 231.928 4187.86 232.313 4184.27 232.313ZM4191.39 214.041C4195.24 214.041 4198.63 213.4 4201.58 212.118C4204.66 210.708 4207.23 208.784 4209.28 206.348C4211.33 203.912 4212.93 201.155 4214.09 198.078C4215.37 195.001 4216.14 191.731 4216.39 188.269H4195.04C4190.43 188.269 4186.65 188.846 4183.7 190C4180.75 191.154 4178.57 192.757 4177.16 194.808C4175.88 196.732 4175.23 198.975 4175.23 201.54C4175.23 204.233 4175.88 206.54 4177.16 208.464C4178.57 210.259 4180.43 211.669 4182.74 212.695C4185.17 213.593 4188.06 214.041 4191.39 214.041ZM4299.16 232.313C4289.03 232.313 4280.24 230.197 4272.81 225.966C4265.5 221.735 4259.79 215.901 4255.69 208.464C4251.72 200.899 4249.73 192.18 4249.73 182.307C4249.73 172.434 4251.84 163.779 4256.08 156.342C4260.31 148.905 4266.14 143.071 4273.58 138.84C4281.14 134.48 4289.73 132.301 4299.35 132.301C4311.4 132.301 4321.53 135.442 4329.74 141.725C4337.94 148.008 4343.14 156.599 4345.32 167.497H4321.08C4319.8 162.24 4317.17 158.265 4313.2 155.573C4309.22 152.752 4304.48 151.341 4298.97 151.341C4294.35 151.341 4290.05 152.56 4286.08 154.996C4282.23 157.304 4279.09 160.766 4276.65 165.382C4274.35 169.998 4273.19 175.639 4273.19 182.307C4273.19 187.179 4273.83 191.475 4275.12 195.193C4276.4 198.911 4278.19 202.117 4280.5 204.81C4282.94 207.374 4285.69 209.361 4288.77 210.772C4291.85 212.182 4295.25 212.887 4298.97 212.887C4302.68 212.887 4306.02 212.246 4308.97 210.964C4312.04 209.682 4314.61 207.887 4316.66 205.579C4318.84 203.271 4320.31 200.45 4321.08 197.116H4345.32C4343.14 207.759 4337.88 216.285 4329.55 222.696C4321.34 229.107 4311.21 232.313 4299.16 232.313ZM4358.95 230.005V134.609H4382.03V230.005H4358.95ZM4370.49 120.569C4366.26 120.569 4362.73 119.286 4359.91 116.722C4357.22 114.029 4355.87 110.696 4355.87 106.721C4355.87 102.874 4357.22 99.6686 4359.91 97.1041C4362.73 94.4115 4366.26 93.0652 4370.49 93.0652C4374.72 93.0652 4378.25 94.4115 4381.07 97.1041C4383.89 99.6686 4385.3 102.938 4385.3 106.913C4385.3 110.76 4383.89 114.029 4381.07 116.722C4378.25 119.286 4374.72 120.569 4370.49 120.569ZM4440.77 232.313C4431.66 232.313 4423.71 230.133 4416.92 225.774C4410.25 221.414 4405.06 215.516 4401.34 208.079C4397.75 200.514 4395.95 191.923 4395.95 182.307C4395.95 172.818 4397.75 164.292 4401.34 156.727C4405.06 149.162 4410.38 143.199 4417.3 138.84C4424.23 134.48 4432.43 132.301 4441.92 132.301C4449.74 132.301 4456.41 133.839 4461.92 136.917C4467.56 139.994 4471.92 143.712 4475 148.072V95.3732H4498.08V230.005H4478.85L4477.31 212.695H4476.54C4474.1 216.926 4471.09 220.517 4467.5 223.466C4463.91 226.286 4459.87 228.466 4455.38 230.005C4451.02 231.544 4446.15 232.313 4440.77 232.313ZM4447.11 213.08C4452.88 213.08 4457.82 211.798 4461.92 209.233C4466.15 206.54 4469.42 202.886 4471.73 198.27C4474.17 193.654 4475.39 188.269 4475.39 182.114C4475.39 176.088 4474.17 170.767 4471.73 166.151C4469.42 161.535 4466.15 157.945 4461.92 155.38C4457.82 152.688 4452.88 151.341 4447.11 151.341C4441.6 151.341 4436.73 152.688 4432.5 155.38C4428.26 157.945 4424.99 161.535 4422.69 166.151C4420.38 170.767 4419.22 176.088 4419.22 182.114C4419.22 188.269 4420.38 193.654 4422.69 198.27C4424.99 202.886 4428.26 206.54 4432.5 209.233C4436.73 211.798 4441.6 213.08 4447.11 213.08ZM4543.78 232.313C4536.21 232.313 4529.93 231.031 4524.93 228.466C4520.05 225.774 4516.4 222.248 4513.96 217.888C4511.66 213.4 4510.5 208.528 4510.5 203.271C4510.5 197.244 4512.04 192.052 4515.12 187.692C4518.32 183.204 4523 179.742 4529.16 177.306C4535.31 174.742 4542.94 173.46 4552.05 173.46H4576.47C4576.47 168.203 4575.7 163.907 4574.16 160.573C4572.75 157.111 4570.51 154.611 4567.43 153.072C4564.48 151.406 4560.76 150.572 4556.28 150.572C4551.02 150.572 4546.4 151.854 4542.43 154.419C4538.58 156.855 4536.27 160.702 4535.51 165.959H4512.81C4513.45 159.035 4515.7 153.072 4519.54 148.072C4523.39 143.071 4528.45 139.225 4534.74 136.532C4541.15 133.711 4548.39 132.301 4556.47 132.301C4565.57 132.301 4573.33 133.903 4579.74 137.109C4586.28 140.186 4591.22 144.61 4594.55 150.38C4597.88 156.15 4599.55 163.138 4599.55 171.344V230.005H4580.51L4578.01 214.618H4577.24C4575.45 217.696 4573.33 220.324 4570.89 222.504C4568.46 224.684 4565.83 226.479 4563.01 227.889C4560.32 229.3 4557.3 230.39 4553.97 231.159C4550.76 231.928 4547.37 232.313 4543.78 232.313ZM4550.89 214.041C4554.74 214.041 4558.14 213.4 4561.09 212.118C4564.16 210.708 4566.73 208.784 4568.78 206.348C4570.83 203.912 4572.43 201.155 4573.59 198.078C4574.87 195.001 4575.64 191.731 4575.89 188.269H4554.55C4549.93 188.269 4546.15 188.846 4543.2 190C4540.25 191.154 4538.07 192.757 4536.66 194.808C4535.38 196.732 4534.74 198.975 4534.74 201.54C4534.74 204.233 4535.38 206.54 4536.66 208.464C4538.07 210.259 4539.93 211.669 4542.24 212.695C4544.67 213.593 4547.56 214.041 4550.89 214.041ZM4654.04 232.313C4644.94 232.313 4636.99 230.133 4630.19 225.774C4623.53 221.414 4618.33 215.516 4614.61 208.079C4611.02 200.514 4609.23 191.923 4609.23 182.307C4609.23 172.818 4611.02 164.292 4614.61 156.727C4618.33 149.162 4623.65 143.199 4630.58 138.84C4637.5 134.48 4645.71 132.301 4655.2 132.301C4663.02 132.301 4669.69 133.839 4675.2 136.917C4680.84 139.994 4685.2 143.712 4688.28 148.072V95.3732H4711.36V230.005H4692.12L4690.59 212.695H4689.82C4687.38 216.926 4684.37 220.517 4680.78 223.466C4677.19 226.286 4673.15 228.466 4668.66 230.005C4664.3 231.544 4659.43 232.313 4654.04 232.313ZM4660.39 213.08C4666.16 213.08 4671.1 211.798 4675.2 209.233C4679.43 206.54 4682.7 202.886 4685.01 198.27C4687.44 193.654 4688.66 188.269 4688.66 182.114C4688.66 176.088 4687.44 170.767 4685.01 166.151C4682.7 161.535 4679.43 157.945 4675.2 155.38C4671.1 152.688 4666.16 151.341 4660.39 151.341C4654.88 151.341 4650 152.688 4645.77 155.38C4641.54 157.945 4638.27 161.535 4635.96 166.151C4633.66 170.767 4632.5 176.088 4632.5 182.114C4632.5 188.269 4633.66 193.654 4635.96 198.27C4638.27 202.886 4641.54 206.54 4645.77 209.233C4650 211.798 4654.88 213.08 4660.39 213.08ZM4771.86 232.313C4762.25 232.313 4753.72 230.261 4746.28 226.158C4738.97 221.927 4733.2 216.157 4728.97 208.848C4724.87 201.412 4722.82 192.757 4722.82 182.884C4722.82 172.883 4724.87 164.099 4728.97 156.534C4733.08 148.969 4738.78 143.071 4746.09 138.84C4753.53 134.48 4762.18 132.301 4772.05 132.301C4781.41 132.301 4789.62 134.416 4796.67 138.648C4803.85 142.751 4809.37 148.264 4813.21 155.188C4817.19 162.112 4819.18 169.933 4819.18 178.652C4819.18 179.935 4819.18 181.345 4819.18 182.884C4819.18 184.422 4819.05 186.089 4818.79 187.884H4739.55V173.075H4795.9C4795.52 166.023 4793.08 160.509 4788.59 156.534C4784.11 152.431 4778.53 150.38 4771.86 150.38C4767.12 150.38 4762.69 151.47 4758.59 153.649C4754.62 155.701 4751.41 158.907 4748.97 163.266C4746.67 167.497 4745.51 172.947 4745.51 179.614V185.192C4745.51 191.09 4746.67 196.155 4748.97 200.386C4751.28 204.617 4754.42 207.887 4758.4 210.195C4762.5 212.375 4766.93 213.464 4771.67 213.464C4776.93 213.464 4781.35 212.31 4784.94 210.002C4788.53 207.566 4791.22 204.297 4793.02 200.194H4816.48C4814.69 206.348 4811.67 211.862 4807.44 216.734C4803.34 221.478 4798.28 225.261 4792.25 228.082C4786.22 230.902 4779.43 232.313 4771.86 232.313ZM3842.47 415.005V280.373H3891.32C3902.09 280.373 3910.94 282.168 3917.86 285.758C3924.91 289.349 3930.11 294.221 3933.44 300.376C3936.9 306.53 3938.63 313.518 3938.63 321.34C3938.63 328.776 3936.97 335.572 3933.63 341.727C3930.43 347.881 3925.3 352.818 3918.25 356.536C3911.19 360.255 3902.22 362.114 3891.32 362.114H3865.55V415.005H3842.47ZM3865.55 343.265H3889.97C3898.95 343.265 3905.36 341.278 3909.21 337.303C3913.18 333.328 3915.17 328.007 3915.17 321.34C3915.17 314.416 3913.18 309.03 3909.21 305.184C3905.36 301.209 3898.95 299.222 3889.97 299.222H3865.55V343.265ZM3948.33 415.005V319.609H3968.14L3970.07 340.38H3970.83C3973.78 333.713 3976.86 328.712 3980.07 325.379C3983.4 322.045 3987.18 319.865 3991.41 318.839C3995.65 317.814 4000.58 317.301 4006.22 317.301V341.534H4000.07C3995.45 341.534 3991.29 342.111 3987.57 343.265C3983.98 344.419 3980.96 346.15 3978.53 348.458C3976.22 350.638 3974.43 353.523 3973.14 357.113C3971.99 360.575 3971.41 364.806 3971.41 369.807V415.005H3948.33ZM4056.41 417.313C4047.31 417.313 4039.1 415.197 4031.8 410.966C4024.49 406.735 4018.65 400.901 4014.29 393.464C4010.06 385.899 4007.95 377.18 4007.95 367.307C4007.95 357.434 4010.06 348.715 4014.29 341.15C4018.65 333.585 4024.49 327.751 4031.8 323.648C4039.23 319.416 4047.5 317.301 4056.61 317.301C4065.84 317.301 4074.11 319.416 4081.42 323.648C4088.73 327.751 4094.5 333.585 4098.73 341.15C4103.09 348.715 4105.27 357.434 4105.27 367.307C4105.27 377.18 4103.09 385.899 4098.73 393.464C4094.5 400.901 4088.66 406.735 4081.23 410.966C4073.92 415.197 4065.65 417.313 4056.41 417.313ZM4056.41 398.272C4061.03 398.272 4065.2 397.118 4068.92 394.81C4072.76 392.502 4075.84 389.104 4078.15 384.617C4080.58 380.001 4081.8 374.231 4081.8 367.307C4081.8 360.383 4080.65 354.613 4078.34 349.997C4076.03 345.381 4072.96 341.983 4069.11 339.803C4065.26 337.495 4061.16 336.341 4056.8 336.341C4052.31 336.341 4048.14 337.495 4044.3 339.803C4040.45 341.983 4037.31 345.381 4034.87 349.997C4032.57 354.613 4031.41 360.383 4031.41 367.307C4031.41 374.231 4032.57 380.001 4034.87 384.617C4037.31 389.104 4040.39 392.502 4044.11 394.81C4047.95 397.118 4052.06 398.272 4056.41 398.272ZM4153.76 415.005C4147.35 415.005 4141.71 413.979 4136.83 411.928C4131.96 409.876 4128.18 406.478 4125.49 401.734C4122.92 396.99 4121.64 390.579 4121.64 382.501V337.688H4105.29V319.609H4121.64L4124.14 294.606H4144.72V319.609H4170.88V337.688H4144.72V382.501C4144.72 387.758 4145.75 391.348 4147.8 393.271C4149.85 395.195 4153.44 396.156 4158.57 396.156H4170.11V415.005H4153.76ZM4221.43 417.313C4211.82 417.313 4203.29 415.261 4195.85 411.158C4188.55 406.927 4182.78 401.157 4178.54 393.848C4174.44 386.412 4172.39 377.757 4172.39 367.884C4172.39 357.883 4174.44 349.099 4178.54 341.534C4182.65 333.969 4188.35 328.071 4195.66 323.84C4203.1 319.48 4211.75 317.301 4221.63 317.301C4230.99 317.301 4239.19 319.416 4246.25 323.648C4253.43 327.751 4258.94 333.264 4262.79 340.188C4266.76 347.112 4268.75 354.933 4268.75 363.652C4268.75 364.935 4268.75 366.345 4268.75 367.884C4268.75 369.422 4268.62 371.089 4268.36 372.884H4189.12V358.075H4245.48C4245.09 351.023 4242.66 345.509 4238.17 341.534C4233.68 337.431 4228.1 335.38 4221.43 335.38C4216.69 335.38 4212.27 336.47 4208.16 338.649C4204.19 340.701 4200.98 343.907 4198.55 348.266C4196.24 352.497 4195.09 357.947 4195.09 364.614V370.192C4195.09 376.09 4196.24 381.155 4198.55 385.386C4200.86 389.617 4204 392.887 4207.97 395.195C4212.07 397.375 4216.5 398.464 4221.24 398.464C4226.5 398.464 4230.92 397.31 4234.51 395.002C4238.1 392.566 4240.8 389.297 4242.59 385.194H4266.06C4264.26 391.348 4261.25 396.862 4257.02 401.734C4252.91 406.478 4247.85 410.261 4241.82 413.082C4235.8 415.902 4229 417.313 4221.43 417.313ZM4320.9 455.779C4311.92 455.779 4304.03 454.625 4297.24 452.317C4290.44 450.137 4285.19 446.932 4281.47 442.701C4277.75 438.469 4275.89 433.276 4275.89 427.122C4275.89 423.275 4276.85 419.557 4278.77 415.967C4280.83 412.376 4283.84 409.107 4287.81 406.158C4291.79 403.08 4296.92 400.324 4303.2 397.887L4313.2 408.85C4307.18 411.03 4302.94 413.466 4300.51 416.159C4298.07 418.98 4296.85 422.185 4296.85 425.775C4296.85 428.596 4297.82 431.032 4299.74 433.084C4301.66 435.136 4304.42 436.674 4308.01 437.7C4311.6 438.726 4315.89 439.239 4320.9 439.239C4325.77 439.239 4329.81 438.662 4333.01 437.508C4336.22 436.354 4338.59 434.687 4340.13 432.507C4341.8 430.455 4342.63 428.019 4342.63 425.198C4342.63 421.608 4341.28 418.787 4338.59 416.736C4336.03 414.684 4330.9 413.402 4323.2 412.889C4316.41 412.376 4310.45 411.671 4305.32 410.774C4300.32 409.748 4295.96 408.594 4292.24 407.312C4288.65 406.029 4285.57 404.619 4283.01 403.08C4280.57 401.413 4278.52 399.747 4276.85 398.08V393.656L4296.85 373.269L4310.32 378.654L4291.28 400.195L4296.66 390.194C4297.82 390.707 4299.03 391.284 4300.32 391.925C4301.73 392.438 4303.52 393.015 4305.7 393.656C4308.01 394.169 4310.89 394.746 4314.36 395.387C4317.95 395.9 4322.43 396.349 4327.82 396.733C4336.28 397.503 4343.21 399.041 4348.59 401.349C4353.98 403.529 4357.89 406.542 4360.32 410.389C4362.89 414.236 4364.17 418.98 4364.17 424.621C4364.17 429.622 4362.63 434.494 4359.55 439.239C4356.48 443.983 4351.73 447.893 4345.32 450.971C4338.91 454.176 4330.77 455.779 4320.9 455.779ZM4320.9 386.348C4312.82 386.348 4305.89 384.809 4300.12 381.732C4294.35 378.526 4289.93 374.359 4286.85 369.23C4283.78 363.973 4282.24 358.139 4282.24 351.728C4282.24 345.317 4283.78 339.547 4286.85 334.418C4289.93 329.289 4294.35 325.186 4300.12 322.109C4305.89 318.903 4312.82 317.301 4320.9 317.301C4328.97 317.301 4335.9 318.903 4341.67 322.109C4347.44 325.186 4351.86 329.289 4354.94 334.418C4358.02 339.547 4359.55 345.317 4359.55 351.728C4359.55 358.139 4358.02 363.973 4354.94 369.23C4351.86 374.359 4347.44 378.526 4341.67 381.732C4335.9 384.809 4328.97 386.348 4320.9 386.348ZM4320.9 369.422C4326.41 369.422 4330.83 367.948 4334.17 364.999C4337.63 362.05 4339.36 357.69 4339.36 351.92C4339.36 346.022 4337.63 341.663 4334.17 338.842C4330.83 335.893 4326.41 334.418 4320.9 334.418C4315.38 334.418 4310.89 335.893 4307.43 338.842C4303.97 341.663 4302.24 346.022 4302.24 351.92C4302.24 357.69 4303.97 362.05 4307.43 364.999C4310.89 367.948 4315.38 369.422 4320.9 369.422ZM4336.47 335.38L4332.05 319.609H4371.86V332.11L4336.47 335.38ZM4385.62 415.005V319.609H4408.7V415.005H4385.62ZM4397.16 305.569C4392.93 305.569 4389.4 304.286 4386.58 301.722C4383.89 299.029 4382.54 295.696 4382.54 291.721C4382.54 287.874 4383.89 284.669 4386.58 282.104C4389.4 279.412 4392.93 278.065 4397.16 278.065C4401.39 278.065 4404.92 279.412 4407.74 282.104C4410.56 284.669 4411.97 287.938 4411.97 291.913C4411.97 295.76 4410.56 299.029 4407.74 301.722C4404.92 304.286 4401.39 305.569 4397.16 305.569ZM4467.44 417.313C4458.33 417.313 4450.38 415.133 4443.59 410.774C4436.92 406.414 4431.73 400.516 4428.01 393.079C4424.42 385.514 4422.62 376.923 4422.62 367.307C4422.62 357.818 4424.42 349.292 4428.01 341.727C4431.73 334.162 4437.05 328.199 4443.97 323.84C4450.9 319.48 4459.1 317.301 4468.59 317.301C4476.41 317.301 4483.08 318.839 4488.59 321.917C4494.23 324.994 4498.59 328.712 4501.67 333.072V280.373H4524.75V415.005H4505.52L4503.98 397.695H4503.21C4500.77 401.926 4497.76 405.517 4494.17 408.466C4490.58 411.286 4486.54 413.466 4482.05 415.005C4477.69 416.544 4472.82 417.313 4467.44 417.313ZM4473.78 398.08C4479.55 398.08 4484.49 396.798 4488.59 394.233C4492.82 391.54 4496.09 387.886 4498.4 383.27C4500.84 378.654 4502.06 373.269 4502.06 367.114C4502.06 361.088 4500.84 355.767 4498.4 351.151C4496.09 346.535 4492.82 342.945 4488.59 340.38C4484.49 337.688 4479.55 336.341 4473.78 336.341C4468.27 336.341 4463.4 337.688 4459.17 340.38C4454.94 342.945 4451.67 346.535 4449.36 351.151C4447.05 355.767 4445.9 361.088 4445.9 367.114C4445.9 373.269 4447.05 378.654 4449.36 383.27C4451.67 387.886 4454.94 391.54 4459.17 394.233C4463.4 396.798 4468.27 398.08 4473.78 398.08ZM4570.45 417.313C4562.88 417.313 4556.6 416.031 4551.6 413.466C4546.73 410.774 4543.07 407.248 4540.64 402.888C4538.33 398.4 4537.17 393.528 4537.17 388.271C4537.17 382.244 4538.71 377.052 4541.79 372.692C4544.99 368.204 4549.67 364.742 4555.83 362.306C4561.98 359.742 4569.61 358.46 4578.72 358.46H4603.14C4603.14 353.203 4602.37 348.907 4600.83 345.573C4599.42 342.111 4597.18 339.611 4594.1 338.072C4591.15 336.406 4587.44 335.572 4582.95 335.572C4577.69 335.572 4573.07 336.854 4569.1 339.419C4565.25 341.855 4562.95 345.702 4562.18 350.959H4539.48C4540.12 344.035 4542.37 338.072 4546.21 333.072C4550.06 328.071 4555.12 324.225 4561.41 321.532C4567.82 318.711 4575.06 317.301 4583.14 317.301C4592.24 317.301 4600 318.903 4606.41 322.109C4612.95 325.186 4617.89 329.61 4621.22 335.38C4624.56 341.15 4626.22 348.138 4626.22 356.344V415.005H4607.18L4604.68 399.618H4603.91C4602.12 402.696 4600 405.324 4597.57 407.504C4595.13 409.684 4592.5 411.479 4589.68 412.889C4586.99 414.3 4583.97 415.39 4580.64 416.159C4577.43 416.928 4574.04 417.313 4570.45 417.313ZM4577.56 399.041C4581.41 399.041 4584.81 398.4 4587.76 397.118C4590.83 395.708 4593.4 393.784 4595.45 391.348C4597.5 388.912 4599.1 386.155 4600.26 383.078C4601.54 380.001 4602.31 376.731 4602.57 373.269H4581.22C4576.6 373.269 4572.82 373.846 4569.87 375C4566.92 376.154 4564.74 377.757 4563.33 379.808C4562.05 381.732 4561.41 383.975 4561.41 386.54C4561.41 389.233 4562.05 391.54 4563.33 393.464C4564.74 395.259 4566.6 396.669 4568.91 397.695C4571.34 398.593 4574.23 399.041 4577.56 399.041Z" fill="#5D1E37"></path></g></g></svg>