<svg width="18" height="18" viewBox="0 0 24 24" xmlns="http://www.w3.org/2000/svg">
  <path d="M12.3 2.2c.2.2.4.5.6.8 1.4 1.8 2.1 3.8 2.1 5.7 0 2.3-1.1 4-2.6 5-.1.1-.2.3-.1.4.2.3.7.7 1.3.7.6 0 1.1-.4 1.4-.9.3.6.5 1.4.5 2.2 0 2.7-2 4.6-4.8 4.6s-4.8-1.9-4.8-4.6c0-2.3 1.4-4.3 2.8-5.8.1-.1.3-.1.4 0 .6.6 1 1.5 1.1 2.3 1-1 1.6-2.3 1.6-3.7 0-1.5-.5-2.9-1.3-4.1-.1-.1.1-.3.2-.2z" fill="#FF5C8D"></path>
  <path d="M10.2 14.3c-.5.5-.8 1.2-.8 2 0 1.3.9 2.3 2.1 2.3s2.1-1 2.1-2.3c0-.5-.1-1-.4-1.4-.1-.1-.3-.1-.4 0-.3.3-.7.5-1.2.5-.5 0-.9-.2-1.2-.5-.1-.1-.3-.1-.4 0z" fill="#FFFFFF"></path>
</svg>
